<svg xmlns="http://www.w3.org/2000/svg" width="183" height="46" viewBox="0 0 183 46">
    <g fill="#FFF">
        <g>
            <path d="M.329.216H9.829V9.716H.329zM16.838.216H26.338V9.716H16.838zM.329 16.656H9.829V26.156999999999996H.329zM16.838 16.656H26.338V26.156999999999996H16.838zM.329 33.03H9.829V42.53H.329zM16.838 33.03H26.338V42.53H16.838zM33.414 16.656H42.915V26.156999999999996H33.414zM33.414 33.03H42.915V42.53H33.414zM43.046 5.036c0 2.782-2.254 5.036-5.037 5.036-2.781 0-5.035-2.254-5.035-5.036C32.974 2.255 35.228 0 38.01 0c2.783 0 5.037 2.255 5.037 5.036" transform="translate(138.943 2.061)"/>
        </g>
        <path d="M106.029 11.544l.752-2.81h4.82s6.477-.046 6.477 6.931c0 6.546-6.326 6.317-6.326 6.317h-10.393l.755-2.85h8.96s3.39 0 3.39-3.62-3.088-3.968-3.088-3.968h-5.347zM91.968 10.847l3.593-1.484v6.898s-.306 4.08-5.732 4.524H25.103s-5.502.075-5.502-5.34V2.242L23.268.834V14.85s-.23 2.817 2.675 3.113H89.6s2.141-.148 2.37-1.78v-5.337z"/>
        <path d="M0.611 0.574H4.455V4.36H0.611z" transform="translate(84.644 23.823)"/>
        <path d="M0.061 0.574H2.944V4.36H0.061z" transform="translate(89.435 23.823)"/>
        <path d="M16.471 10.205V22.89s.043 5.289-6.482 5.289H.311l1.795-3.182h8.103s2.364-.172 2.364-2.15V12.055l3.898-1.85z"/>
        <path d="M0.369 0.539L0.369 13.983 15.611 13.983 15.611 10.839 4.398 10.839 4.398 8.46 10.881 8.46 10.881 5.436 4.442 5.436 4.442 3.301 15.611 3.301 15.611 0.539z" transform="translate(21.762 30.808)"/>
        <path d="M0.686 0.478L5.339 0.478 9.482 5.276 13.705 0.519 18.004 0.519 11.085 7.775 11.085 13.863 7.567 13.863 7.567 8.017z" transform="translate(39.926 30.808)"/>
        <path d="M10.41 31.287c-1.591 0-10.235.038-10.235.038v13.426h9.849s7.524-.324 7.524-6.41c0-6.087-5.547-7.054-7.138-7.054m-.838 10.3c-1.785 0-5.483.06-5.483.06v-7.5h6.063s3.526.163 3.526 3.589-2.322 3.85-4.106 3.85M65.816 31.325L58.389 44.73h3.636l1.485-2.881h7.466l1.604 2.861h3.986l-7.544-13.385h-3.206zm-.664 7.581l2.189-3.91 2.07 3.91h-4.26zM86.545 31.325L79.12 44.73h3.633l1.486-2.881h7.468l1.602 2.861h3.988L89.75 31.325h-3.206zm-.664 7.581l2.19-3.91 2.072 3.91h-4.262zM112.114 39.994s4.955.122 4.955-4.515c0 0-.107-4.174-4.067-4.174H100.68v13.446h3.77v-4.839h2.624l5.336 4.818h5.59l-5.885-4.736zm-7.623-2.904v-2.96h7.41s1.44.18 1.44 1.39c0 1.531-1.44 1.57-1.44 1.57h-7.41z"/>
    </g>
</svg>
