<svg xmlns="http://www.w3.org/2000/svg" width="155" height="38" viewBox="0 0 155 38">
    <g fill="none">
        <g>
            <path fill="#00376B" d="M.252.167H8.222V8.120000000000001H.252zM14.094.167H22.064V8.120000000000001H14.094zM.252 13.981H8.222V21.934H.252zM14.094 13.981H22.064V21.934H14.094zM.252 27.628H8.222V35.581H.252zM14.094 27.628H22.064V35.581H14.094zM28.021 13.981H35.991V21.934H28.021zM28.021 27.628H35.991V35.581H28.021z" transform="translate(118 1)"/>
            <path fill="#7AC143" d="M36.075 4.186c0 2.344-1.93 4.186-4.195 4.186-2.349 0-4.195-1.925-4.195-4.186C27.685 1.842 29.615 0 31.88 0c2.35 0 4.195 1.926 4.195 4.186" transform="translate(118 1)"/>
        </g>
        <path fill="#00376B" d="M89.5 8.657l.667-2.4h4s5.416 0 5.416 5.914c0 5.572-5.25 5.4-5.25 5.4h-8.75l.667-2.4h7.5s2.833 0 2.833-3.085C96.583 9 94 8.657 94 8.657h-4.5zM78.455 8.914l3.039-1.285v5.914s-.254 3.514-4.812 3.857H21.98s-4.643.086-4.643-4.543V1.543l3.123-1.2v12s-.169 2.4 2.28 2.657h53.772s1.773-.086 2.026-1.543V8.914h-.084z"/>
        <path fill="#00376B" d="M0.48 0.48H3.52V3.52H0.48z" transform="translate(72 20)"/>
        <path fill="#00376B" d="M0.1 0.48H3V3.52H0.1z" transform="translate(75 20)"/>
        <path fill="#00376B" d="M14.559 7.168v10.695s0 4.463-5.735 4.463H.264l1.589-2.694H9s2.118-.169 2.118-1.769V8.684l3.44-1.516z"/>
        <path fill="#00376B" d="M0.35 0.431L0.35 12.071 13.65 12.071 13.65 9.312 3.85 9.312 3.85 7.329 9.537 7.329 9.537 4.656 3.85 4.656 3.85 2.845 13.65 2.845 13.65 0.431z" transform="translate(19 25)"/>
        <path fill="#00376B" d="M0.583 0.429L4.417 0.429 7.917 4.543 11.417 0.429 15 0.429 9.25 6.686 9.25 11.914 6.333 11.914 6.333 6.857z" transform="translate(35 25)"/>
        <path fill="#00376B" d="M8.667 25.429h-8.5v11.485h8.166s6.25-.257 6.25-5.485c0-5.229-4.583-6-5.916-6M8 34.257c-1.5 0-4.583.086-4.583.086v-6.514H8.5s2.917.171 2.917 3.085c0 3-1.917 3.343-3.417 3.343M56.055 25.429l-6.29 11.485h3.06L54.1 34.43h6.375l1.36 2.485h3.4l-6.46-11.485h-2.72zm-.51 6.514l1.87-3.343 1.785 3.343h-3.655zM72.055 25.429l-6.29 11.485h3.06L70.1 34.43h6.375l1.36 2.485h3.4l-6.46-11.485h-2.72zm-.595 6.514l1.87-3.343 1.785 3.343H71.46zM94.583 32.886s4.167.085 4.167-3.857c0 0-.083-3.6-3.417-3.6h-10.25v11.485h3.167V32.8h2.167l4.416 4.114H99.5l-4.917-4.028zM88.25 30.4v-2.571h6.167s1.166.171 1.166 1.2c0 1.285-1.166 1.371-1.166 1.371H88.25z"/>
    </g>
</svg>
