<svg id="Layer_1" data-name="Layer 1" xmlns="http://www.w3.org/2000/svg" viewBox="0 0 600 600"><defs><style>.cls-1{fill:#d7ba8f;}.cls-2{fill:#0b1427;}</style></defs><circle class="cls-1" cx="311.11" cy="307.7" r="167.02"/><path class="cls-2" d="M213.94,348.76V228.69h2.33q74.85,0,149.7,0c1.66,0,2.57.34,3.13,2.09a35.83,35.83,0,0,0,2.71,5.29,10.74,10.74,0,0,1-.71.82Q362,246,352.83,255.16a2.53,2.53,0,0,1-2.68.77,15.23,15.23,0,0,0-5.71,0,2.42,2.42,0,0,1-2.68-.78,21.63,21.63,0,0,0-1.91-1.92c-2.14-1.9-3.64-3.59-2.78-7.12,1-4-1.32-7.44-5-9.47a9.92,9.92,0,0,0-14.36,11.29,2.78,2.78,0,0,1-.88,3.22Q309.83,258,303,265a2.57,2.57,0,0,1-3,.86,9.78,9.78,0,0,0-11.31,4.48,10,10,0,0,0,13.61,13.74,9.82,9.82,0,0,0,4.59-11.27,2.61,2.61,0,0,1,.76-3.06c4.77-4.66,9.47-9.4,14.16-14.14a2.6,2.6,0,0,1,2.69-.77,40.41,40.41,0,0,0,5.93,0,4.25,4.25,0,0,1,2.13.51,20.82,20.82,0,0,1,2.1,2c2.19,1.93,3.77,3.65,2.91,7.27-1,4.11,1.4,7.55,5.19,9.55a9.27,9.27,0,0,0,10.74-1c3.35-2.67,4.65-6.23,3.42-10.4a2.77,2.77,0,0,1,.91-3.21c6.32-6.26,12.57-12.58,18.55-18.58l10.87,4.56v60c-24.67-12-46.73-8.29-66.48,10.84V302.27h-20v39.89h7.44l-.79,6.6Zm60.11-59.9V342h19.76V288.86Zm-53.39,20V342h19.77V308.89ZM247.3,342h19.76V315.58H247.3ZM280.46,242v-6.47H234V242Zm0,6.91H234v6.42h46.45Zm0,13.34H234v6.43h46.44Zm0,13.36H234V282h46.45Zm-59.92-33.65h6.49v-6.38h-6.49Zm0,13.32h6.49v-6.4H220.6ZM227,268.66v-6.49h-6.38v6.49ZM220.62,282h6.44v-6.4h-6.44Z"/><path class="cls-2" d="M321.92,378.41l11.63-6.71c6.85,8.81,15.75,13.78,27,13.81s20.18-4.84,27.2-13.82l11.6,6.67c-8.81,12.3-20.5,19.43-35.43,20.37C346.39,399.83,332.55,392.69,321.92,378.41Z"/><path class="cls-2" d="M357.23,305.53V318.9c-11.06,1.54-19.75,6.86-25.39,16.54s-6,19.88-1.64,30.45l-11.53,6.69c-6.15-13.38-6.62-26.72-.4-39.88C326,316.45,339.2,307.7,357.23,305.53Z"/><path class="cls-2" d="M364.06,318.92V305.59c15.59,1.59,27.81,8.63,36.06,21.81,9,14.37,9.47,29.49,2.55,45.18l-11.58-6.68c4.31-10.46,4.05-20.69-1.64-30.45S375.14,320.41,364.06,318.92Z"/><path class="cls-2" d="M360.62,325.48A26.7,26.7,0,1,1,334,352.15,26.76,26.76,0,0,1,360.62,325.48Zm20,26.73a20,20,0,1,0-20,20A20.07,20.07,0,0,0,380.65,352.21Z"/><path class="cls-2" d="M390.6,238.69A16.68,16.68,0,1,1,407.34,222,16.72,16.72,0,0,1,390.6,238.69Z"/><path class="cls-2" d="M307.38,308.88h6.54c0,5.76.09,11.43-.06,17.09,0,1.15-.95,2.26-1.44,3.4a28,28,0,0,0-1.68,4c-.46,1.85-1.43,2.51-3.36,1.95Z"/><path class="cls-2" d="M330.6,245.47a3.32,3.32,0,1,1-3.22-3.42A3.37,3.37,0,0,1,330.6,245.47Z"/><path class="cls-2" d="M350.62,265.56a3.32,3.32,0,1,1-6.64-.32,3.32,3.32,0,1,1,6.64.32Z"/><path class="cls-2" d="M300.57,275.38a3.32,3.32,0,1,1-3.35-3.29A3.35,3.35,0,0,1,300.57,275.38Z"/><path class="cls-2" d="M287.15,295.56v39.77h-6.44V295.56Z"/><path class="cls-2" d="M227.27,335.33V315.59h6.42v19.74Z"/><path class="cls-2" d="M254,322.23h6.42v13.09H254Z"/><path class="cls-2" d="M360.67,338.83A13.35,13.35,0,1,1,347.3,352.2,13.36,13.36,0,0,1,360.67,338.83Z"/></svg>