<svg id="Layer_1" data-name="Layer 1" xmlns="http://www.w3.org/2000/svg" viewBox="0 0 600 600"><defs><style>.cls-1{fill:#d7ba8f;}.cls-2{fill:#0b1427;}</style></defs><circle class="cls-1" cx="279.29" cy="337.95" r="167.02"/><path class="cls-2" d="M315.88,456.48c-5.2-1-10.57-1.51-15.58-3.11-29.42-9.38-47.93-29.15-53.85-59.5-7.3-37.47,14.5-73.87,50.69-86.18,42.67-14.52,89.1,11.64,98.85,55.67a76.52,76.52,0,0,1-61.93,92.09c-2.34.4-4.71.69-7.06,1Zm26.22-90.41c.55-7.4-4.47-15.21-12.08-18.73a2.35,2.35,0,0,1-1.67-2.54c.09-4.37,0-8.74,0-13.19H314.52v14.91l-1.76.82c-10.94,5.17-15.4,18-9.73,28.51,3.86,7.17,10.07,10.81,18.2,11.17,4,.18,6.88,2.8,7.14,6.5a7.09,7.09,0,0,1-5.78,7.31c-3.52.66-6.88-1.65-7.95-5.47-.12-.42-.19-.86-.27-1.23H300.55c.61,9.5,5.36,15.82,14,19.54v14.84h13.8c0-4.42.07-8.66,0-12.9a2.64,2.64,0,0,1,1.86-2.89,20.78,20.78,0,0,0-8.68-39.6,7,7,0,0,1-7-6.6,7.05,7.05,0,0,1,5.89-7.2c3.47-.58,6.74,1.67,7.81,5.38.14.48.26,1,.37,1.37Z"/><path class="cls-2" d="M160.74,258.77c4-16.86,16.9-24.9,31.41-30.92,17.54-7.28,36-9.3,54.87-8.11,14.52.91,28.53,3.9,41.68,10.31a56.42,56.42,0,0,1,18,13.16c10.58,11.95,10.39,26.45-.58,38-7.74,8.18-17.49,13-28,16.42-21.13,6.78-42.68,7.61-64.46,3.88-13.18-2.26-25.74-6.31-36.85-14-7.2-5-13-11.09-15.33-19.88-.21-.81-.46-1.6-.7-2.4Z"/><path class="cls-2" d="M160.74,292.57c17.5,15.51,38.68,21.68,61.32,24.16a152.51,152.51,0,0,0,35.37-.43c-1.61,1.81-2.91,3.26-4.19,4.72A85.76,85.76,0,0,0,239,343.39a2.77,2.77,0,0,1-3.07,2c-18.08-.47-35.59-3.42-51.87-11.74-7-3.58-13.25-8.16-18-14.57a34.39,34.39,0,0,1-5.33-12.14Z"/><path class="cls-2" d="M160.74,375.91a84.19,84.19,0,0,0,23.32,14.73A133.37,133.37,0,0,0,229,400.5c4.53.24,4.56.17,5.78,4.46a89.45,89.45,0,0,0,9.38,21.53c.3.52.56,1.06,1,1.85-2,.12-3.74.3-5.5.31-18.47.11-36.4-2.58-53.25-10.56-7.89-3.73-15-8.57-20.27-15.69a34.09,34.09,0,0,1-5.33-12.13Z"/><path class="cls-2" d="M160.74,334.24a84.36,84.36,0,0,0,24.6,15.26,135.19,135.19,0,0,0,42.92,9.31l4.16.24a11.32,11.32,0,0,1,1.17.23c-1.91,8.94-3.05,17.9-2.11,27.47-4.06-.38-7.95-.62-11.81-1.13-14.09-1.87-27.63-5.5-39.92-12.92-5.66-3.42-10.91-7.45-14.33-13.18-2-3.37-3.15-7.26-4.68-10.92Z"/></svg>