<svg id="Layer_1" data-name="Layer 1" xmlns="http://www.w3.org/2000/svg" viewBox="0 0 600 600"><defs><style>.cls-1{fill:#d7ba8f;}.cls-2{fill:#0b1427;}</style></defs><circle class="cls-1" cx="311" cy="345.66" r="167.02"/><path class="cls-2" d="M382.48,354.76a74.61,74.61,0,0,1-149.21-.09c0-41.28,33.41-74.8,74.49-74.72A74.61,74.61,0,0,1,382.48,354.76Zm-79.57-36.08c-3.36,1.5-6.72,2.55-9.59,4.37-12.34,7.86-12.43,24.1-.12,32a32.78,32.78,0,0,0,9.33,3.56c3.44.9,7.06,1.06,10.54,1.84,5,1.12,8.76,5.22,8.91,9.3.14,3.88-3,7.88-7.72,9.69-7,2.7-14,.9-19.06-4.91-2.27-2.6-4.94-3.08-7.22-1.31s-2.54,4.56-.48,7.32a22.44,22.44,0,0,0,13.2,8.82c1.85.43,2.6,1.24,2.35,3.1a14.31,14.31,0,0,0,0,2.45c.13,3.19,2,5.28,4.71,5.36a4.73,4.73,0,0,0,4.95-5.09c-.44-4.22,1.35-5.61,5.1-6.79a22.13,22.13,0,0,0,8.39-5.37c7.87-7.71,7.33-19.51-.9-26.84a24.83,24.83,0,0,0-13.15-6.06c-3.33-.49-6.69-.87-9.95-1.63-4.54-1.06-7.93-4.71-8.26-8.43-.35-4.07,2.27-7.91,6.78-9.94a16.62,16.62,0,0,1,19.55,4.12,7.86,7.86,0,0,0,2.84,2.2,4.48,4.48,0,0,0,5.44-1.67,4.68,4.68,0,0,0-.12-6c-3.84-5.27-9.15-8.24-15.41-9.57-.66-4.09,1.43-10-5.13-10.06S303.69,315.25,302.91,318.68Z"/><path class="cls-2" d="M279.56,227.14c-5-3.23-9.51-6.11-14-9.12a4.86,4.86,0,0,1-1.58-6.93c1.5-2.21,4.19-2.75,6.78-1.34a11.12,11.12,0,0,1,1,.65q11.18,7.24,22.34,14.52c4,2.6,4.46,4.93,1.88,8.94q-7.21,11.2-14.5,22.35c-2.13,3.26-4.85,4.16-7.42,2.52s-3-4.49-.86-7.76c2.91-4.54,5.86-9.05,8.8-13.57l-.45-.83c-5.81,2-11.83,3.5-17.41,6-41.44,18.58-64.75,50.47-69.63,95.71-.33,3-.32,6.11-.46,9.18-.15,3.33-2.11,5.49-4.95,5.43s-4.84-2.26-4.83-5.59a116.35,116.35,0,0,1,7.1-41.12q23-60.85,85.74-78.27C277.75,227.76,278.32,227.54,279.56,227.14Z"/><path class="cls-2" d="M217.47,431.55c-.28,5.64-.53,10.63-.79,15.62-.2,3.82-2.14,6-5.19,5.89s-4.77-2.35-4.59-6.29q.6-13.62,1.35-27.23c.22-4.14,2.1-5.87,6.31-5.69q13.62.58,27.22,1.38c3.93.22,5.89,2.15,5.7,5.32s-2.31,4.61-6.39,4.43c-5.3-.22-10.59-.5-16.34-.77a19.4,19.4,0,0,0,1.37,1.85q38.61,38.65,93,33.89c15.77-1.39,30.46-6.36,44.29-14,1.5-.84,3.63-1.55,5.1-1.11s2.87,2.25,3.4,3.78c.78,2.28-.57,4.25-2.72,5.21-8.64,3.85-17,8.7-26.05,11.19-47,13-88.27,2.4-123.5-31.42C219.11,433,218.51,432.49,217.47,431.55Z"/><path class="cls-2" d="M425.51,383l12.17-6.16c1-.5,2-1.1,3-1.51a4.86,4.86,0,0,1,6.48,2.34,4.66,4.66,0,0,1-2.05,6.31c-2.28,1.34-4.69,2.46-7.05,3.67-6.09,3.1-12.16,6.22-18.27,9.29-3.9,2-6.24,1.2-8.24-2.7Q405.34,382.17,399.2,370c-1.65-3.27-1-6,1.55-7.42s5.45-.29,7.19,3c2.45,4.71,4.86,9.43,7.29,14.14.08.16.3.26.59.5a95.72,95.72,0,0,0,4.9-28.59q.69-66.54-55.67-102.11c-.43-.27-.89-.5-1.31-.79-2.54-1.72-3.3-4.52-1.88-6.87a4.68,4.68,0,0,1,6.93-1.45c7.19,5,14.8,9.6,21.21,15.49,28.07,25.77,41.58,58,40.43,96.08-.27,9-2.58,17.92-4,26.87C426.27,380.07,425.93,381.22,425.51,383Z"/></svg>