<svg id="Layer_1" data-name="Layer 1" xmlns="http://www.w3.org/2000/svg" viewBox="0 0 600 600"><defs><style>.cls-1{fill:#d7ba8f;}.cls-2{fill:#0b1427;}</style></defs><circle class="cls-1" cx="298.79" cy="334.09" r="167.02"/><path class="cls-2" d="M412.31,324.87a14.62,14.62,0,0,0-1.93-6.86c-4.8-8.4-9.84-16.67-14.9-24.92a9.22,9.22,0,0,1-1.47-5.41q.15-4.21,0-8.43a3.29,3.29,0,1,0-6.57,0,19.14,19.14,0,0,0,0,3.55c.67,5.32-.82,9.91-3.89,14.3s-5.45,8.9-7.72,12.68c-2.06-.12-3.67-.6-5-.19-1.81.54-1.89,2.42-1.83,4.11,0,.59,0,1.19,0,1.78V416.71H339V288.85h30c0,2.69-.06,5.27,0,7.83a3.39,3.39,0,0,0,3.47,3.54,3.33,3.33,0,0,0,3.14-3.6c.05-3.47.06-6.95,0-10.42,0-2.67-1.47-4.06-4.15-4.12-1.88-.05-3.76,0-5.9,0,1.46-3.12,2-6.43,6.49-5.79,2,.29,3.51-1.71,3.56-4,.06-3.25,0-6.5,0-9.76,0-3.54-1.41-4.9-5-4.93-2.33,0-4.66,0-7.18,0V253.7c0-1.18,0-2.37,0-3.54-.15-2.62-1.52-4.33-3.82-4.79-.7-.14-1.42-.16-2.26-.25,0-2.71,0-5.29,0-7.87s-1.24-4.14-3.27-4.2-3.36,1.45-3.37,4.24c0,2.62,0,5.25,0,7.83-5,.49-6.15,1.82-6.15,6.57v5.89c-2.56,0-4.84,0-7.12,0-3.8,0-5.15,1.39-5.18,5.27,0,2.58,0,5.17,0,7.76,0,4.6,1.1,5.66,5.76,5.83a2.76,2.76,0,0,1,2,.83,45.29,45.29,0,0,1,2.42,4.79c-2.13,0-3.95,0-5.76,0-2.93.05-4.33,1.42-4.42,4.37-.06,2.29-.09,4.59,0,6.88.06,1.36-.43,1.9-1.76,2.25-7.86,2-15.69,4.21-23.53,6.31a11.94,11.94,0,0,1-1.84.23V239.36c0-.82,0-1.63-.05-2.44a3.7,3.7,0,0,0-3.52-3.63c-4.28-.12-8.58-.1-12.86,0a3,3,0,0,0-3,3,3.07,3.07,0,0,0,2.55,3.41,11,11,0,0,0,2.64.16c2.48,0,5,0,7.56,0v64.67a20.33,20.33,0,0,0,0,2.21,3.35,3.35,0,0,0,4.36,3.14c1.73-.4,3.42-.92,5.14-1.38L332,302v28.79H302.29c-.07-.34-.13-.48-.14-.63,0-2.36,0-4.73,0-7.1-.05-3.21-1.08-4.26-4.27-4.27-5.92,0-11.84,0-17.75,0-.79,0-1.57-.07-2.52-.12,0-6.58,0-12.93,0-19.27,0-3.9-1.24-5.14-5.21-5.15-11,0-22-.07-33.05.06-1.89,0-2.51-.63-3.05-2.23a68.42,68.42,0,0,0-10.31-19.26c-2.16-2.85-4.51-5.56-6.88-8.45H235.4c0,4.73,0,9.3,0,13.87,0,3.14,1.17,4.28,4.3,4.28,7.61,0,15.23,0,22.85,0,3.7,0,4.7-1,4.7-4.76V239.86c2.11,0,3.89,0,5.66,0,2.42-.07,3.8-1.37,3.76-3.43s-1.34-3.16-3.71-3.2-4.88,0-7.32,0c-3.71,0-5,1.38-5,5.12q0,17.53,0,35.06v2.37H242.05V262.57c0-4.21-.79-5-5.08-5-8.06,0-16.12,0-24.18,0a5.76,5.76,0,0,1-2.71-.65c-5.59-3.14-11.09-6.45-16.71-9.54-4-2.17-5.68-1.65-8.19,1.9v171.3c1.12,2.26,3,3,5.43,3q108.17,0,216.32,0c4.11,0,5.46-1.37,5.46-5.45C412.39,387,412.43,355.93,412.31,324.87Zm-60.79-42.82c-3.51-.08-2.61-3.68-4.67-5.51H360.5C358.55,282.18,358.55,282.22,351.52,282.05Zm-.21-30h5.24v5.36h-5.24ZM339,269.57v-5.25h29.82v5.25ZM204.23,355.44v-5.31h18.68v5.31Zm18.64,6.92v5.28H204.28v-5.28Zm0-43.7H204.27V313.3h18.65ZM204.23,306.4v-5.47H216c5.16,0,5.16,0,5.8,5.47Zm0-12.29v-19a57.39,57.39,0,0,1,13.71,19Zm0,43.71h18.62v5.4H204.26Zm18.62,49.06v5.26H204.24v-5.26Zm0,29.84H204.23v-5.39h18.69Zm0-12.31h-18.7v-5.34H223Zm35.59-29.78V404.5h-5.32V374.63Zm.06-43.75h-5.39V313.29h5.39ZM295.24,399v5.41H290V399ZM290,392.15V362.39h5.22v29.76Zm0-36.73v-5.35h5.32v5.35Zm12.31,43.63h5.27v5.4h-5.27Zm0-6.95V362.38h5.28V392.1Zm0-36.67v-5.29h5.36v5.29Zm17.65,43.69v5.34h-5.42v-5.34Zm-5.39-6.95V362.39h5.36v29.78Zm5.37-36.78h-5.42v-5.28h5.42Zm-36.64,51.18q0-14.64,0-29.27t0-29.48q0,14.74,0,29.48T283.23,406.57Zm-5.54-80.94h17.6v5.21h-17.6Zm98-.07h5.38v5.34h-5.38Zm0,12.26h5.41v17.61h-5.41Zm.06,49.12h5.3v17.53h-5.3Zm5.34,29.77h-5.34v-5.4h5.34Zm0-36.74H375.8V362.38h5.34Zm1-62.36c-.5,2.26-2.31.65-3.36,1.34l-.33-.58q2.35-3.92,4.72-7.84l.31.11C383,313,382.64,315.3,382.13,317.61Zm8.29-7.59.51,0c.55,2.8,1.11,5.6,1.72,8.71h-3.93C389.31,315.7,389.86,312.86,390.42,310Zm-2.33,15.57h5.22v17.6h-5.22Zm0,24.51h5.26v17.56h-5.26Zm5.23,66.66h-5.2V399.05h5.2Zm0-24.69h-5.27V374.59h5.27Zm6.9-61.22v-5.23h5.39v5.23Zm0,56h5.31v17.57h-5.31ZM399,316.16c-.33-1.64-.65-3.28-1-4.92l.55-.12c1.45,2.42,2.9,4.84,4.38,7.29C399.81,319.3,399.58,319.17,399,316.16Zm6.63,100.41c-6.45.66-5.72.89-5.26-5.24h5.26Zm0-36.59h-5.33V362.39h5.33Zm.05-24.56h-5.4V337.85h5.4Z"/><path class="cls-2" d="M358.57,294.28h-9.1c-4.09,0-5,.89-5,4.91V406.57c0,3.62,1,4.66,4.56,4.67h9.54c3.82,0,4.81-1,4.81-4.9q0-10.09,0-20.19,0-43.48,0-87C363.39,295.23,362.46,294.29,358.57,294.28Zm-7.32,73.35v-5.25h5.36v5.25Zm5.28,6.95V380h-5.24v-5.4Zm-5.28-19.17v-5.25h5.38v5.25Zm0-36.76v-5.36h5.3v5.36Zm5.3,7v5.31h-5.27V325.6Zm0,17.62H351.3v-5.37h5.29ZM351.24,301h5.32v5.36h-5.32Zm0,85.84h5.37v5.26h-5.37Zm5.4,17.56h-5.37v-5.35h5.37Z"/></svg>