<svg id="Layer_1" data-name="Layer 1" xmlns="http://www.w3.org/2000/svg" viewBox="0 0 600 600"><defs><style>.cls-1{fill:#d7ba8f;}.cls-2{fill:#0b1427;}</style></defs><circle class="cls-1" cx="273.62" cy="307.7" r="167.02"/><path class="cls-2" d="M190.9,396.59V260.24A19.55,19.55,0,0,1,193,260H223.5c7.14,0,10.88-3.73,10.88-10.83q0-15.24,0-30.46a19.71,19.71,0,0,1,.23-2.17h91.51c6.6,2.51,8.41,5.15,8.41,12.26,0,12.62,0,25.24,0,37.85a6.87,6.87,0,0,1-.86,3.26c-7.08,12.38-14.25,24.7-21.31,37.08a3.1,3.1,0,0,1-3.15,1.79q-47.67-.08-95.35,0c-.62,0-1.36-.2-1.81.07-.68.42-1.58,1.17-1.58,1.79s.86,1.42,1.54,1.81c.51.3,1.31.09,2,.09h95.07c-2.2,3.83-4.39,7.29-6.24,10.91-2.88,5.65-7.57,10.46-8,17.32h-81c-.61,0-1.36-.2-1.81.08-.67.42-1.57,1.17-1.58,1.79s.86,1.42,1.53,1.82c.51.3,1.32.1,2,.1h80.15a13.09,13.09,0,0,1,0,1.79c-.66,4.67-1.5,9.31-2,14-.4,4.05-2.3,8.11-.09,12.42h-6.37c-2.57,0-5.14,0-7.72,0-1.34,0-2.56.2-2.6,1.85-.05,1.81,1.28,2,2.67,2h33.81c.55,0,1.22.16,1.62-.09.64-.41,1.57-1.13,1.53-1.65a3.33,3.33,0,0,0-1.46-2c-.41-.29-1.19-.09-1.8-.09h-8.47c5.44-4.26,10.27-8.42,15.48-12a38.14,38.14,0,0,0,13.48-15.57c.54-1.17,1.28-2.25,1.94-3.37l.38.16v51.39c0,7.32-4.07,11.39-11.35,11.39H229.68c-9.43,0-18.86,0-28.3,0a10.12,10.12,0,0,1-10.09-7.31A6.18,6.18,0,0,0,190.9,396.59ZM262.64,280.5h49c.61,0,1.37.2,1.8-.09a3.22,3.22,0,0,0,1.52-1.88c.05-.54-.84-1.29-1.47-1.71-.39-.26-1.07-.09-1.62-.09H213.47c-.55,0-1.25-.17-1.62.09-.62.44-1.41,1.16-1.42,1.77s.76,1.39,1.38,1.8c.43.29,1.19.11,1.8.11Zm21.6-32H311.8c1.46,0,3.27.26,3.27-1.9s-1.85-1.88-3.28-1.88H257c-.55,0-1.22-.16-1.62.1-.64.42-1.56,1.17-1.51,1.7.07.69.88,1.42,1.53,1.91.36.27,1.07.08,1.62.08Z"/><path class="cls-2" d="M359.12,266.06l10.66,6.16c-.32.6-.57,1.12-.87,1.63q-21.87,37.9-43.73,75.8a2.92,2.92,0,0,1-2.51,1.8,29.27,29.27,0,0,0-2.89.53,4,4,0,0,1-4.26-1.88,26,26,0,0,1-2.16-3.8,2.48,2.48,0,0,1,.43-1.77q9.82-17.1,19.71-34.17,12.33-21.37,24.67-42.75C358.44,267.14,358.74,266.68,359.12,266.06Z"/><path class="cls-2" d="M345.05,257.94l10.61,6.13c-.32.64-.57,1.24-.89,1.79q-22,38.22-44.09,76.45c-.69,1.2-1.34,1.93-2.81,1.44a3.25,3.25,0,0,0-1.28,0c-3.83.32-4.79-.48-6.2-4.15a5.66,5.66,0,0,1,.57-5.43Q322.5,297,343.9,259.82C344.23,259.24,344.59,258.68,345.05,257.94Z"/><path class="cls-2" d="M347,254.58c2.36-4.08,4.55-8,6.83-11.78a2.93,2.93,0,0,1,4.41-1.14q9.56,5.44,19.05,11c1.78,1,2.34,2.55,1.44,4.17-2.2,4-4.53,7.95-6.91,12.09Z"/><path class="cls-2" d="M298.28,344.25a9.23,9.23,0,0,0,8.8,3.37,3.72,3.72,0,0,1,4.13,2.41,8.87,8.87,0,0,0,7.26,5.85c-1.68,1.33-3.15,2.5-4.63,3.65q-7,5.49-14,11c-1.09.86-2.21,1.34-3.54.63s-1.56-1.94-1.37-3.31C296,360.09,297.13,352.35,298.28,344.25Z"/><path class="cls-2" d="M230.59,219.87v11.4c0,6.24,0,12.49,0,18.73a5.8,5.8,0,0,1-6.05,6.18q-14.78,0-29.57,0a5.83,5.83,0,0,1-.65,0Q212.39,238.06,230.59,219.87Z"/></svg>