<svg id="Layer_1" data-name="Layer 1" xmlns="http://www.w3.org/2000/svg" viewBox="0 0 600 600"><defs><style>.cls-1{fill:#d7ba8f;}.cls-2{fill:#0b1427;}</style></defs><circle class="cls-1" cx="298.79" cy="307.7" r="167.02"/><path class="cls-2" d="M264.09,353.35v6.41h50.42c8.42,0,14.27-4.58,16.5-12.72a3.07,3.07,0,0,1,1.62-1.69c6-2.66,12.15-5.16,18.15-7.91a7.45,7.45,0,0,0,3.18-3c2.29-4.2,4.33-8.54,6.61-13.1H219.29v-6.47h2.44q69.91,0,139.84,0a3.43,3.43,0,0,0,3.24-1.35,5.26,5.26,0,0,1,6.36-1.39,5.6,5.6,0,0,1,3.37,5.64c-2.48,19.8-9.7,37.4-24.27,51.47-14.75,14.23-32.43,22.07-52.9,22.45-24.63.46-49.28.12-73.92.13-.26,0-.52,0-1-.08,0-.65-.09-1.29-.09-1.92,0-13.1,0-26.19,0-39.29a3,3,0,0,1,1.51-2.9A81.37,81.37,0,0,1,268,334.15c15.63-.14,31.26,0,46.88,0,5.77,0,10.09,4.23,10,9.72s-4.35,9.5-10,9.51q-24.15,0-48.28,0Z"/><path class="cls-2" d="M272.85,260.34h-4.54c-3.24,0-4.25,1.05-4.25,4.35q0,22.23,0,44.47v2.49h-2q-14.61,0-29.23,0c-8.25,0-13.62-5.41-13.67-13.66-.06-8-.21-16,2.37-23.77a60.43,60.43,0,0,1,9.39-18.44,4.43,4.43,0,0,1,3.89-1.9q16.22.13,32.43,0a2.86,2.86,0,0,1,3,1.66C271,257.09,271.89,258.57,272.85,260.34Zm-28,35.47v2.9h6.28l.17-3.09h2c3.3,0,4.33-1,4.34-4.27,0-2.14,0-4.28,0-6.41,0-4.68-.66-5.36-5.26-5.36h-7.45v-3.25h13c-.35-1.87-.12-4.06-1.07-4.91-1.36-1.2-3.59-1.42-5.7-2.14v-2.4h-6.28l-.17,3.08h-2c-3.3,0-4.32,1-4.33,4.27,0,2.14,0,4.28,0,6.41,0,4.68.66,5.36,5.25,5.36h7.46v3.25H238.55C238.05,294.65,238.45,295.07,244.88,295.81Z"/><path class="cls-2" d="M318.39,311.58h-19V228.37H325v2.11c0,14.23,0,28.46,0,42.68a4.18,4.18,0,0,1-1.41,3.3c-3.31,3.21-6.52,6.51-9.8,9.75-1.21,1.2-2.14,2.43-1.36,4.23s2.29,2.06,4,2c.59,0,1.19,0,2,0Zm-9.59-32.09v-6.16h-3v6.16Zm6.69-6.24v6.24h3v-6.24ZM318.42,241v-6.16h-3V241Zm-3,12.78h3v-6.16h-3Zm-9.6-19V241h3v-6.2Zm0,12.82v6.24h2.95v-6.24Zm-.06,19h3v-6.16h-3Zm9.62,0h3v-6.16h-3Z"/><path class="cls-2" d="M215.83,404.57h-19V334.26h19Zm-6.4-51.26v-9.44H203.3v9.44Z"/><path class="cls-2" d="M292.76,311.57H270.57V266.92h22.19ZM277,273.25v6.24h3v-6.24Zm9.55,6.24h3V273.3h-3Zm-6.56,6.6h-3v6.19h3Zm6.57,6.22h3v-6.17h-3ZM280,305.16v-6.22h-3v6.22Zm6.6-.06h3v-6.17h-3Z"/><path class="cls-2" d="M224.81,230.7c2.87.81,5.19,1.43,7.49,2.11a5.52,5.52,0,0,0,5.87-1.5c1.83-1.85,3.59-3.77,5.5-5.78.91,1.18,1.6,2.06,2.28,3,3.56,4.75,6.56,5,10.81.72,1.13-1.13,2.24-2.28,3.17-3.23,2.28,2.22,4.15,4.82,6.67,6.31,3,1.76,5.6-1.11,8.83-2.22l-7.07,17.34h-8.65l4-8.09L258,236.47c-1.57,3.12-3.16,6.1-4.57,9.17a3,3,0,0,1-3,2c-2.7.21-4.3-.58-5.2-3.24a56.77,56.77,0,0,0-2.89-6.12L236.63,241l3,6.52c-1.78,0-3.35.05-4.9,0a1.71,1.71,0,0,1-1.23-.73C230.68,241.56,227.87,236.35,224.81,230.7Z"/><path class="cls-2" d="M341.1,268.66l17.18,17.18H323.83C329.54,280.17,335.33,274.41,341.1,268.66Z"/><path class="cls-2" d="M325.11,292.51h31.82v19h-6.32V300.16c0-3.57-1-4.54-4.48-4.54H335.51c-3,0-4.12,1.09-4.13,4.08,0,3.92,0,7.84,0,11.86h-6.27Z"/><path class="cls-2" d="M344.16,302.2v9.3h-6.24v-9.3Z"/><path class="cls-2" d="M360.26,231.45H354v-6.36h6.3l-.06-.06v6.47Z"/><path class="cls-2" d="M366.61,225.09h6.3v6.36h-6.3l.06.05V225Z"/><path class="cls-2" d="M366.61,231.45v6.3h-6.35v-6.3l-.06.05h6.47Z"/><path class="cls-2" d="M196.76,247.54v-6.3h6.35v6.3l.06-.06H196.7Z"/><path class="cls-2" d="M382.56,247.42h-6.15v-6.19h6.15Z"/><path class="cls-2" d="M196.76,253.9h-6.3v-6.36h6.3l-.06-.06V254Z"/><path class="cls-2" d="M203.11,247.54h6.3v6.36h-6.29l0,0v-6.47Z"/><path class="cls-2" d="M203.22,224.91v-6.15h6.24v6.15Z"/><path class="cls-2" d="M190.42,273.25h6.18v6.21h-6.18Z"/><path class="cls-2" d="M203.12,253.9v6.3h-6.36v-6.3l-.06,0h6.47Z"/><path class="cls-2" d="M360.15,250.81V257h-6.22v-6.19Z"/><path class="cls-2" d="M360.26,225.09v-6.3h6.35v6.3l.06-.06H360.2Z"/></svg>