<svg xmlns="http://www.w3.org/2000/svg" viewBox="15.239987487792973 172.76499938964844 544.5199890136719 233.07999992370605"> <svg xmlns="http://www.w3.org/2000/svg" xmlns:xlink="http://www.w3.org/1999/xlink" version="1.1" id="aaaa_1" x="242.00198474121095" y="242.76499938964844" viewBox="1359.5 1025.300048828125 2280.89990234375 949.5" xml:space="preserve" height="37.881781868312665" width="91" preserveAspectRatio="xMinYMin" enable-background="new 0 0 5000 3000" style="overflow: visible;"><polygon points="2244.5,1073.3 1359.5,1958.2 1771.9,1958.2 2704.4,1025.6  " style="fill: #dec093; fill-opacity: 1;"></polygon><polygon points="2113.2,1958.2 2440.8,1958.2 2465.7,1933.3 2867.9,1531 2540.4,1531  " style="fill: #dec093; fill-opacity: 1;"></polygon><path d="M3626.5,1974.8l13.9-13.9l-410.1-410.1l257.5-257.5l-13.9-13.9l-257.5,257.5l-511.6-511.6l-13.9,13.9l511.6,511.6l-157,157   l-177.2-177.2l-0.4,0.4l-13.5,13.5l177.1,177.2L2789,1964.3h513l-242.6-242.6l157-157L3626.5,1974.8z M3254.5,1944.6h-418l209-209   L3254.5,1944.6z" style="fill: #dec093; fill-opacity: 1;"></path></svg> <svg y="325.76499938964844" viewBox="0.9800000190734863 3.7699999809265137 304.75 10.079999923706055" x="135.1249856567383" height="10.079999923706055" width="304.75" style="overflow: visible;"><g fill="#F5F5F5" fill-opacity="1" style=""><path d="M6.75 13.71L5.73 13.71L3.07 9.53L1.86 9.53L1.86 13.71L0.98 13.71L0.98 3.91L4.09 3.91Q4.59 3.91 5.02 4.10Q5.46 4.29 5.79 4.61Q6.12 4.94 6.31 5.38Q6.49 5.82 6.49 6.32L6.49 6.32L6.49 7.12Q6.49 7.62 6.31 8.06Q6.12 8.50 5.79 8.83Q5.46 9.15 5.02 9.34Q4.59 9.53 4.09 9.53L4.09 9.53L6.75 13.71ZM5.61 7.12L5.61 6.32Q5.61 6.00 5.49 5.71Q5.37 5.43 5.15 5.21Q4.94 5.00 4.66 4.87Q4.38 4.75 4.05 4.75L4.05 4.75L1.86 4.75L1.86 8.69L4.05 8.69Q4.38 8.69 4.66 8.57Q4.94 8.44 5.15 8.23Q5.37 8.01 5.49 7.73Q5.61 7.44 5.61 7.12L5.61 7.12ZM18.61 13.71L13.10 13.71L13.10 3.91L18.61 3.91L18.61 4.75L13.98 4.75L13.98 8.39L17.73 8.39L17.73 9.24L13.98 9.24L13.98 12.87L18.61 12.87L18.61 13.71ZM29.29 13.71L28.64 11.43L25.53 11.43L24.89 13.71L23.98 13.71L26.85 3.91L27.31 3.91L30.20 13.71L29.29 13.71ZM27.06 6.07L25.77 10.59L28.41 10.59L27.11 6.07L27.09 5.71L27.06 6.07ZM40.61 13.71L35.98 13.71L35.98 3.91L36.86 3.91L36.86 12.87L40.61 12.87L40.61 13.71ZM60.08 13.71L54.57 13.71L54.57 3.91L60.08 3.91L60.08 4.75L55.45 4.75L55.45 8.39L59.20 8.39L59.20 9.24L55.45 9.24L55.45 12.87L60.08 12.87L60.08 13.71ZM71.80 11.15L71.80 11.44Q71.80 11.94 71.60 12.38Q71.40 12.82 71.06 13.15Q70.72 13.47 70.28 13.66Q69.83 13.85 69.33 13.85L69.33 13.85L68.63 13.85Q68.13 13.85 67.68 13.66Q67.23 13.47 66.89 13.15Q66.55 12.82 66.35 12.38Q66.15 11.94 66.15 11.44L66.15 11.44L66.15 11.05L67.03 10.91L67.03 11.44Q67.03 11.77 67.17 12.06Q67.30 12.34 67.53 12.55Q67.75 12.77 68.05 12.89Q68.35 13.02 68.67 13.02L68.67 13.02L69.29 13.02Q69.62 13.02 69.91 12.89Q70.21 12.77 70.43 12.55Q70.66 12.34 70.79 12.06Q70.92 11.77 70.92 11.44L70.92 11.44L70.92 11.15Q70.92 10.64 70.72 10.31Q70.53 9.97 70.20 9.74Q69.87 9.50 69.46 9.34Q69.04 9.17 68.61 9.01Q68.17 8.85 67.75 8.65Q67.34 8.45 67.01 8.15Q66.68 7.85 66.49 7.42Q66.29 6.99 66.29 6.36L66.29 6.36L66.29 6.18Q66.29 5.68 66.48 5.24Q66.66 4.81 66.99 4.48Q67.32 4.15 67.76 3.96Q68.20 3.77 68.70 3.77L68.70 3.77L69.33 3.77Q69.83 3.77 70.27 3.96Q70.70 4.15 71.03 4.48Q71.36 4.81 71.55 5.24Q71.74 5.68 71.74 6.18L71.74 6.18L71.74 6.43L70.85 6.58L70.85 6.18Q70.85 5.85 70.73 5.57Q70.61 5.28 70.40 5.07Q70.18 4.86 69.90 4.74Q69.62 4.61 69.29 4.61L69.29 4.61L68.74 4.61Q68.41 4.61 68.13 4.74Q67.85 4.86 67.63 5.07Q67.42 5.28 67.29 5.57Q67.17 5.85 67.17 6.18L67.17 6.18L67.17 6.36Q67.17 6.84 67.37 7.16Q67.57 7.48 67.89 7.71Q68.22 7.94 68.64 8.10Q69.05 8.27 69.49 8.45Q69.92 8.62 70.34 8.83Q70.75 9.04 71.08 9.34Q71.41 9.65 71.61 10.08Q71.80 10.52 71.80 11.15L71.80 11.15ZM83.08 4.75L80.74 4.75L80.74 13.71L79.86 13.71L79.86 4.75L77.52 4.75L77.52 3.91L83.08 3.91L83.08 4.75ZM93.06 13.71L92.41 11.43L89.31 11.43L88.66 13.71L87.75 13.71L90.62 3.91L91.08 3.91L93.97 13.71L93.06 13.71ZM90.83 6.07L89.55 10.59L92.18 10.59L90.89 6.07L90.86 5.71L90.83 6.07ZM104.19 4.75L101.86 4.75L101.86 13.71L100.97 13.71L100.97 4.75L98.64 4.75L98.64 3.91L104.19 3.91L104.19 4.75ZM115.78 13.71L110.26 13.71L110.26 3.91L115.78 3.91L115.78 4.75L111.14 4.75L111.14 8.39L114.90 8.39L114.90 9.24L111.14 9.24L111.14 12.87L115.78 12.87L115.78 13.71ZM136.93 13.71L136.05 13.71L136.05 6.99L135.99 7.41L133.71 13.71L133.25 13.71L130.95 7.41L130.89 6.99L130.89 13.71L130.01 13.71L130.01 3.91L130.47 3.91L133.44 11.95L133.47 12.31L133.50 11.95L136.47 3.91L136.93 3.91L136.93 13.71ZM148.16 13.71L147.51 11.43L144.41 11.43L143.76 13.71L142.85 13.71L145.72 3.91L146.18 3.91L149.07 13.71L148.16 13.71ZM145.93 6.07L144.65 10.59L147.28 10.59L145.99 6.07L145.96 5.71L145.93 6.07ZM160.51 11.31L160.51 11.31Q160.51 11.81 160.32 12.24Q160.13 12.68 159.81 13.01Q159.48 13.34 159.04 13.52Q158.60 13.71 158.10 13.71L158.10 13.71L154.99 13.71L154.99 3.91L158.10 3.91Q158.60 3.91 159.04 4.10Q159.48 4.29 159.81 4.61Q160.13 4.94 160.32 5.38Q160.51 5.82 160.51 6.32L160.51 6.32L160.51 11.31ZM159.63 11.31L159.63 6.32Q159.63 6.00 159.51 5.71Q159.38 5.43 159.17 5.21Q158.95 5.00 158.67 4.87Q158.38 4.75 158.06 4.75L158.06 4.75L155.88 4.75L155.88 12.87L158.06 12.87Q158.38 12.87 158.67 12.75Q158.95 12.63 159.17 12.41Q159.38 12.20 159.51 11.92Q159.63 11.63 159.63 11.31L159.63 11.31ZM172.79 13.71L167.28 13.71L167.28 3.91L172.79 3.91L172.79 4.75L168.16 4.75L168.16 8.39L171.91 8.39L171.91 9.24L168.16 9.24L168.16 12.87L172.79 12.87L172.79 13.71ZM192.54 13.71L191.66 13.71L191.66 9.24L187.91 9.24L187.91 13.71L187.03 13.71L187.03 3.91L187.91 3.91L187.91 8.39L191.66 8.39L191.66 3.91L192.54 3.91L192.54 13.71ZM203.78 13.71L203.13 11.43L200.03 11.43L199.38 13.71L198.47 13.71L201.34 3.91L201.80 3.91L204.69 13.71L203.78 13.71ZM201.55 6.07L200.27 10.59L202.90 10.59L201.61 6.07L201.58 5.71L201.55 6.07ZM215.99 11.15L215.99 11.44Q215.99 11.94 215.78 12.38Q215.58 12.82 215.24 13.15Q214.91 13.47 214.46 13.66Q214.01 13.85 213.51 13.85L213.51 13.85L212.81 13.85Q212.31 13.85 211.86 13.66Q211.41 13.47 211.07 13.15Q210.74 12.82 210.53 12.38Q210.33 11.94 210.33 11.44L210.33 11.44L210.33 11.05L211.21 10.91L211.21 11.44Q211.21 11.77 211.35 12.06Q211.48 12.34 211.71 12.55Q211.93 12.77 212.23 12.89Q212.53 13.02 212.86 13.02L212.86 13.02L213.47 13.02Q213.80 13.02 214.09 12.89Q214.39 12.77 214.61 12.55Q214.84 12.34 214.97 12.06Q215.10 11.77 215.10 11.44L215.10 11.44L215.10 11.15Q215.10 10.64 214.91 10.31Q214.71 9.97 214.38 9.74Q214.05 9.50 213.64 9.34Q213.22 9.17 212.79 9.01Q212.35 8.85 211.94 8.65Q211.52 8.45 211.19 8.15Q210.87 7.85 210.67 7.42Q210.47 6.99 210.47 6.36L210.47 6.36L210.47 6.18Q210.47 5.68 210.66 5.24Q210.85 4.81 211.17 4.48Q211.50 4.15 211.94 3.96Q212.38 3.77 212.88 3.77L212.88 3.77L213.51 3.77Q214.01 3.77 214.45 3.96Q214.89 4.15 215.21 4.48Q215.54 4.81 215.73 5.24Q215.92 5.68 215.92 6.18L215.92 6.18L215.92 6.43L215.04 6.58L215.04 6.18Q215.04 5.85 214.91 5.57Q214.79 5.28 214.58 5.07Q214.37 4.86 214.08 4.74Q213.80 4.61 213.47 4.61L213.47 4.61L212.92 4.61Q212.60 4.61 212.31 4.74Q212.03 4.86 211.81 5.07Q211.60 5.28 211.47 5.57Q211.35 5.85 211.35 6.18L211.35 6.18L211.35 6.36Q211.35 6.84 211.55 7.16Q211.75 7.48 212.08 7.71Q212.40 7.94 212.82 8.10Q213.23 8.27 213.67 8.45Q214.11 8.62 214.52 8.83Q214.93 9.04 215.26 9.34Q215.59 9.65 215.79 10.08Q215.99 10.52 215.99 11.15L215.99 11.15ZM227.92 11.15L227.92 11.44Q227.92 11.94 227.72 12.38Q227.52 12.82 227.18 13.15Q226.84 13.47 226.39 13.66Q225.94 13.85 225.44 13.85L225.44 13.85L224.74 13.85Q224.24 13.85 223.79 13.66Q223.35 13.47 223.01 13.15Q222.67 12.82 222.47 12.38Q222.27 11.94 222.27 11.44L222.27 11.44L222.27 11.05L223.15 10.91L223.15 11.44Q223.15 11.77 223.28 12.06Q223.41 12.34 223.64 12.55Q223.87 12.77 224.16 12.89Q224.46 13.02 224.79 13.02L224.79 13.02L225.40 13.02Q225.73 13.02 226.03 12.89Q226.32 12.77 226.55 12.55Q226.77 12.34 226.90 12.06Q227.04 11.77 227.04 11.44L227.04 11.44L227.04 11.15Q227.04 10.64 226.84 10.31Q226.64 9.97 226.31 9.74Q225.98 9.50 225.57 9.34Q225.16 9.17 224.72 9.01Q224.28 8.85 223.87 8.65Q223.46 8.45 223.13 8.15Q222.80 7.85 222.60 7.42Q222.40 6.99 222.40 6.36L222.40 6.36L222.40 6.18Q222.40 5.68 222.59 5.24Q222.78 4.81 223.11 4.48Q223.43 4.15 223.88 3.96Q224.32 3.77 224.82 3.77L224.82 3.77L225.44 3.77Q225.94 3.77 226.38 3.96Q226.82 4.15 227.15 4.48Q227.47 4.81 227.66 5.24Q227.85 5.68 227.85 6.18L227.85 6.18L227.85 6.43L226.97 6.58L226.97 6.18Q226.97 5.85 226.85 5.57Q226.72 5.28 226.51 5.07Q226.30 4.86 226.02 4.74Q225.73 4.61 225.40 4.61L225.40 4.61L224.86 4.61Q224.53 4.61 224.24 4.74Q223.96 4.86 223.75 5.07Q223.53 5.28 223.41 5.57Q223.28 5.85 223.28 6.18L223.28 6.18L223.28 6.36Q223.28 6.84 223.48 7.16Q223.68 7.48 224.01 7.71Q224.34 7.94 224.75 8.10Q225.16 8.27 225.60 8.45Q226.04 8.62 226.45 8.83Q226.87 9.04 227.19 9.34Q227.52 9.65 227.72 10.08Q227.92 10.52 227.92 11.15L227.92 11.15ZM238.97 13.71L234.34 13.71L234.34 3.91L235.22 3.91L235.22 12.87L238.97 12.87L238.97 13.71ZM250.56 13.71L245.04 13.71L245.04 3.91L250.56 3.91L250.56 4.75L245.92 4.75L245.92 8.39L249.67 8.39L249.67 9.24L245.92 9.24L245.92 12.87L250.56 12.87L250.56 13.71ZM270.31 4.75L265.67 4.75L265.67 8.39L269.42 8.39L269.42 9.24L265.67 9.24L265.67 13.71L264.79 13.71L264.79 3.91L270.31 3.91L270.31 4.75ZM282.00 13.71L280.98 13.71L278.32 9.53L277.11 9.53L277.11 13.71L276.23 13.71L276.23 3.91L279.34 3.91Q279.84 3.91 280.28 4.10Q280.72 4.29 281.04 4.61Q281.37 4.94 281.56 5.38Q281.75 5.82 281.75 6.32L281.75 6.32L281.75 7.12Q281.75 7.62 281.56 8.06Q281.37 8.50 281.04 8.83Q280.72 9.15 280.28 9.34Q279.84 9.53 279.34 9.53L279.34 9.53L282.00 13.71ZM280.87 7.12L280.87 6.32Q280.87 6.00 280.74 5.71Q280.62 5.43 280.41 5.21Q280.20 5.00 279.91 4.87Q279.63 4.75 279.30 4.75L279.30 4.75L277.11 4.75L277.11 8.69L279.30 8.69Q279.63 8.69 279.91 8.57Q280.20 8.44 280.41 8.23Q280.62 8.01 280.74 7.73Q280.87 7.44 280.87 7.12L280.87 7.12ZM293.87 13.71L288.35 13.71L288.35 3.91L293.87 3.91L293.87 4.75L289.23 4.75L289.23 8.39L292.98 8.39L292.98 9.24L289.23 9.24L289.23 12.87L293.87 12.87L293.87 13.71ZM305.73 13.71L300.21 13.71L300.21 3.91L305.73 3.91L305.73 4.75L301.10 4.75L301.10 8.39L304.85 8.39L304.85 9.24L301.10 9.24L301.10 12.87L305.73 12.87L305.73 13.71Z" transform="translate(0, 0)"></path></g></svg> <svg y="289.76499938964844" viewBox="2.8899998664855957 5.070000171661377 404.5199890136719 25.43000030517578" x="85.23998748779297" height="25.43000030517578" width="404.5199890136719" style="overflow: visible;"><g fill="#F5F5F5" fill-opacity="1" style=""><path d="M17.54 12.48Q17.54 14.45 16.61 16.00Q15.67 17.54 13.94 18.43Q12.21 19.31 9.86 19.31L9.86 19.31Q8.43 19.31 6.80 19.01L6.80 19.01L6.80 26.42Q6.80 27.74 7.14 28.44Q7.48 29.14 7.89 29.38Q8.30 29.61 8.30 29.55L8.30 29.55L2.89 29.55Q2.89 29.61 3.30 29.38Q3.71 29.14 4.03 28.46Q4.35 27.78 4.35 26.42L4.35 26.42L4.35 9.38Q4.35 8.02 4.03 7.31Q3.71 6.60 3.30 6.34Q2.89 6.09 2.89 6.15L2.89 6.15L9.55 6.15Q11.29 6.15 12.41 6.38Q13.53 6.60 14.38 7.04L14.38 7.04Q15.91 7.82 16.73 9.30Q17.54 10.78 17.54 12.48L17.54 12.48ZM14.93 12.92Q14.93 10.51 13.43 9.01Q11.93 7.51 9.45 7.51L9.45 7.51L6.80 7.51L6.80 17.68Q8.26 17.95 9.86 17.95L9.86 17.95Q12.24 17.95 13.58 16.58Q14.93 15.20 14.93 12.92L14.93 12.92ZM31.36 17.78Q32.92 17.78 34.08 17.05Q35.23 16.32 35.83 15.15Q36.42 13.97 36.42 12.68L36.42 12.68Q36.42 11.36 35.86 10.18Q35.30 9.01 34.14 8.26Q32.99 7.51 31.32 7.51L31.32 7.51L28.43 7.51L28.43 26.42Q28.43 27.78 28.77 28.48Q29.11 29.17 29.52 29.39Q29.93 29.61 29.93 29.55L29.93 29.55L24.52 29.55Q24.52 29.61 24.93 29.38Q25.34 29.14 25.66 28.46Q25.98 27.78 25.98 26.42L25.98 26.42L25.98 9.42Q25.98 8.02 25.66 7.29Q25.34 6.56 24.93 6.31Q24.52 6.05 24.52 6.15L24.52 6.15L31.25 6.15Q33.91 6.15 35.62 7.02Q37.34 7.89 38.11 9.27Q38.87 10.64 38.87 12.27L38.87 12.27Q38.87 13.63 38.22 14.94Q37.58 16.25 36.37 17.22Q35.16 18.19 33.57 18.56L33.57 18.56L33.02 18.67L39.01 26.28Q40.20 27.61 40.98 28.32Q41.76 29.04 42.12 29.27Q42.47 29.51 42.54 29.55L42.54 29.55L38.56 29.55L29.32 17.78L31.36 17.78ZM47.62 18.12Q47.62 14.52 49.16 11.70Q50.71 8.87 53.52 7.31Q56.32 5.75 59.99 5.75L59.99 5.75Q63.05 5.75 65.72 7.09Q68.39 8.43 70.01 11.12Q71.62 13.80 71.62 17.58L71.62 17.58Q71.62 21.18 70.07 24.00Q68.53 26.83 65.72 28.39Q62.92 29.95 59.24 29.95L59.24 29.95Q56.18 29.95 53.52 28.61Q50.85 27.27 49.23 24.58Q47.62 21.90 47.62 18.12L47.62 18.12ZM68.90 18.09Q68.90 14.99 67.63 12.50Q66.35 10.00 64.12 8.59Q61.90 7.17 59.11 7.17L59.11 7.17Q56.56 7.17 54.57 8.47Q52.58 9.76 51.46 12.12Q50.34 14.48 50.34 17.61L50.34 17.61Q50.34 20.71 51.61 23.21Q52.89 25.70 55.11 27.12Q57.34 28.53 60.13 28.53L60.13 28.53Q62.68 28.53 64.67 27.23Q66.66 25.94 67.78 23.58Q68.90 21.22 68.90 18.09L68.90 18.09ZM88.29 7.51L83.05 7.51L83.05 17.17L88.93 17.17Q90.19 17.17 90.62 16.80Q91.04 16.42 91.04 16.18L91.04 16.18L91.04 19.52Q91.04 19.41 90.89 19.19Q90.74 18.97 90.28 18.75Q89.82 18.53 88.93 18.53L88.93 18.53L83.05 18.53L83.05 26.38Q83.05 27.71 83.39 28.41Q83.73 29.10 84.14 29.36Q84.55 29.61 84.55 29.55L84.55 29.55L79.14 29.55Q79.14 29.61 79.55 29.38Q79.96 29.14 80.28 28.44Q80.60 27.74 80.60 26.38L80.60 26.38L80.60 9.49Q80.60 8.09 80.28 7.36Q79.96 6.63 79.55 6.34Q79.14 6.05 79.14 6.15L79.14 6.15L91.45 6.15L91.45 9.62Q91.28 8.81 90.50 8.16Q89.72 7.51 88.29 7.51L88.29 7.51ZM98.29 18.12Q98.29 14.52 99.84 11.70Q101.39 8.87 104.19 7.31Q107.00 5.75 110.67 5.75L110.67 5.75Q113.73 5.75 116.40 7.09Q119.07 8.43 120.68 11.12Q122.30 13.80 122.30 17.58L122.30 17.58Q122.30 21.18 120.75 24.00Q119.20 26.83 116.40 28.39Q113.59 29.95 109.92 29.95L109.92 29.95Q106.86 29.95 104.19 28.61Q101.52 27.27 99.91 24.58Q98.29 21.90 98.29 18.12L98.29 18.12ZM119.58 18.09Q119.58 14.99 118.30 12.50Q117.03 10.00 114.80 8.59Q112.57 7.17 109.78 7.17L109.78 7.17Q107.23 7.17 105.25 8.47Q103.26 9.76 102.13 12.12Q101.01 14.48 101.01 17.61L101.01 17.61Q101.01 20.71 102.29 23.21Q103.56 25.70 105.79 27.12Q108.02 28.53 110.80 28.53L110.80 28.53Q113.35 28.53 115.34 27.23Q117.33 25.94 118.45 23.58Q119.58 21.22 119.58 18.09L119.58 18.09ZM147.94 9.32L147.94 21.42Q147.94 24.11 146.92 26.03Q145.90 27.95 144.05 28.95Q142.19 29.95 139.75 29.95L139.75 29.95Q135.70 29.95 133.49 27.71Q131.28 25.47 131.28 21.49L131.28 21.49L131.28 9.32Q131.28 7.96 130.96 7.26Q130.63 6.56 130.24 6.32Q129.85 6.09 129.85 6.15L129.85 6.15L135.16 6.15Q135.16 6.09 134.77 6.32Q134.37 6.56 134.05 7.24Q133.73 7.92 133.73 9.21L133.73 9.21L133.73 21.49Q133.73 24.79 135.31 26.59Q136.89 28.39 139.95 28.39L139.95 28.39Q142.77 28.39 144.40 26.67Q146.04 24.96 146.04 21.59L146.04 21.59L146.04 9.32Q146.04 7.96 145.70 7.26Q145.36 6.56 144.95 6.32Q144.54 6.09 144.54 6.15L144.54 6.15L149.44 6.15Q149.44 6.09 149.03 6.32Q148.62 6.56 148.28 7.26Q147.94 7.96 147.94 9.32L147.94 9.32ZM174.13 6.15L178.92 6.15Q178.45 6.26 177.99 6.92Q177.53 7.58 177.53 9.25L177.53 9.25L177.53 30.50L160.12 10.20L160.12 26.49Q160.12 28.12 160.70 28.78Q161.28 29.44 161.82 29.55L161.82 29.55L157.03 29.55Q157.50 29.44 158.00 28.78Q158.49 28.12 158.49 26.45L158.49 26.45L158.49 9.45Q158.49 8.30 157.71 7.34Q156.92 6.39 155.73 6.15L155.73 6.15L159.95 6.15L175.90 24.75L175.90 9.25Q175.90 6.63 174.13 6.15L174.13 6.15ZM202.46 27.64Q199.26 29.55 193.92 29.55L193.92 29.55L187.23 29.55Q187.23 29.65 187.63 29.36Q188.04 29.07 188.37 28.29Q188.69 27.51 188.69 26.01L188.69 26.01L188.69 9.28Q188.69 7.96 188.37 7.26Q188.04 6.56 187.63 6.32Q187.23 6.09 187.23 6.15L187.23 6.15L193.89 6.15Q199.09 6.15 202.12 7.85L202.12 7.85Q204.80 9.35 206.27 11.90Q207.73 14.45 207.73 17.65L207.73 17.65Q207.73 21.11 206.35 23.65Q204.97 26.18 202.46 27.64L202.46 27.64ZM201.13 9.38Q199.64 8.40 197.94 7.96Q196.24 7.51 193.89 7.51L193.89 7.51L191.14 7.51L191.14 28.19L193.89 28.19Q196.68 28.19 198.46 27.71Q200.25 27.23 201.54 26.25L201.54 26.25Q203.21 24.96 204.11 22.87Q205.01 20.77 205.01 17.99L205.01 17.99Q205.01 15.03 203.97 12.80Q202.93 10.57 201.13 9.38L201.13 9.38ZM234.06 17.78Q235.62 17.78 236.78 17.05Q237.94 16.32 238.53 15.15Q239.13 13.97 239.13 12.68L239.13 12.68Q239.13 11.36 238.57 10.18Q238.00 9.01 236.85 8.26Q235.69 7.51 234.03 7.51L234.03 7.51L231.14 7.51L231.14 26.42Q231.14 27.78 231.48 28.48Q231.82 29.17 232.22 29.39Q232.63 29.61 232.63 29.55L232.63 29.55L227.23 29.55Q227.23 29.61 227.63 29.38Q228.04 29.14 228.37 28.46Q228.69 27.78 228.69 26.42L228.69 26.42L228.69 9.42Q228.69 8.02 228.37 7.29Q228.04 6.56 227.63 6.31Q227.23 6.05 227.23 6.15L227.23 6.15L233.96 6.15Q236.61 6.15 238.33 7.02Q240.04 7.89 240.81 9.27Q241.57 10.64 241.57 12.27L241.57 12.27Q241.57 13.63 240.93 14.94Q240.28 16.25 239.08 17.22Q237.87 18.19 236.27 18.56L236.27 18.56L235.73 18.67L241.71 26.28Q242.90 27.61 243.68 28.32Q244.46 29.04 244.82 29.27Q245.18 29.51 245.25 29.55L245.25 29.55L241.27 29.55L232.02 17.78L234.06 17.78ZM264.12 29.55L251.31 29.55Q251.31 29.65 251.71 29.39Q252.12 29.14 252.45 28.37Q252.77 27.61 252.77 26.15L252.77 26.15L252.77 9.45Q252.77 8.06 252.45 7.33Q252.12 6.60 251.71 6.32Q251.31 6.05 251.31 6.15L251.31 6.15L263.61 6.15L263.61 9.55Q263.00 7.51 259.94 7.51L259.94 7.51L255.22 7.51L255.22 17.17L261.06 17.17Q261.74 17.17 262.22 16.95Q262.70 16.73 262.93 16.49Q263.17 16.25 263.21 16.18L263.21 16.18L263.21 19.48Q263.17 19.41 262.93 19.18Q262.70 18.94 262.24 18.73Q261.78 18.53 261.10 18.53L261.10 18.53L255.22 18.53L255.22 28.19L260.52 28.19Q262.05 28.19 263.16 27.56Q264.26 26.93 264.74 25.94L264.74 25.94L264.12 29.55ZM285.01 20.47L276.54 20.47L274.37 25.87Q273.86 27.13 273.86 27.95L273.86 27.95Q273.86 29.07 274.88 29.55L274.88 29.55L270.01 29.55Q270.35 29.55 271.00 28.87Q271.65 28.19 272.50 26.18L272.50 26.18L281.37 5.07L290.18 26.28Q290.92 28.12 291.62 28.80Q292.32 29.48 292.73 29.55L292.73 29.55L287.08 29.55Q287.93 29.14 287.93 28.29L287.93 28.29Q287.93 27.57 287.39 26.25L287.39 26.25L285.01 20.47ZM277.12 19.07L284.46 19.07L280.76 10.00L277.12 19.07ZM300.11 9.32Q300.11 7.96 299.79 7.26Q299.47 6.56 299.06 6.32Q298.65 6.09 298.65 6.15L298.65 6.15L304.06 6.15Q304.06 6.09 303.65 6.32Q303.24 6.56 302.90 7.26Q302.56 7.96 302.56 9.32L302.56 9.32L302.56 28.19L308.14 28.19Q309.67 28.19 310.77 27.56Q311.88 26.93 312.35 25.94L312.35 25.94L311.74 29.55L298.65 29.55Q298.65 29.65 299.06 29.39Q299.47 29.14 299.79 28.37Q300.11 27.61 300.11 26.15L300.11 26.15L300.11 9.32ZM319.91 7.51Q318.41 7.51 317.43 8.09Q316.44 8.67 316.00 9.55L316.00 9.55L316.47 6.15L332.59 6.15L333.07 9.55Q332.62 8.67 331.64 8.09Q330.65 7.51 329.16 7.51L329.16 7.51L325.76 7.51L325.76 26.38Q325.76 27.74 326.10 28.46Q326.44 29.17 326.84 29.41Q327.25 29.65 327.25 29.55L327.25 29.55L321.85 29.55Q321.85 29.65 322.25 29.41Q322.66 29.17 322.99 28.48Q323.31 27.78 323.31 26.38L323.31 26.38L323.31 7.51L319.91 7.51ZM338.55 18.12Q338.55 14.52 340.10 11.70Q341.64 8.87 344.45 7.31Q347.25 5.75 350.92 5.75L350.92 5.75Q353.98 5.75 356.65 7.09Q359.32 8.43 360.94 11.12Q362.55 13.80 362.55 17.58L362.55 17.58Q362.55 21.18 361.00 24.00Q359.46 26.83 356.65 28.39Q353.85 29.95 350.18 29.95L350.18 29.95Q347.12 29.95 344.45 28.61Q341.78 27.27 340.16 24.58Q338.55 21.90 338.55 18.12L338.55 18.12ZM359.83 18.09Q359.83 14.99 358.56 12.50Q357.28 10.00 355.06 8.59Q352.83 7.17 350.04 7.17L350.04 7.17Q347.49 7.17 345.50 8.47Q343.51 9.76 342.39 12.12Q341.27 14.48 341.27 17.61L341.27 17.61Q341.27 20.71 342.54 23.21Q343.82 25.70 346.05 27.12Q348.27 28.53 351.06 28.53L351.06 28.53Q353.61 28.53 355.60 27.23Q357.59 25.94 358.71 23.58Q359.83 21.22 359.83 18.09L359.83 18.09ZM376.91 17.78Q378.47 17.78 379.63 17.05Q380.78 16.32 381.38 15.15Q381.97 13.97 381.97 12.68L381.97 12.68Q381.97 11.36 381.41 10.18Q380.85 9.01 379.70 8.26Q378.54 7.51 376.87 7.51L376.87 7.51L373.98 7.51L373.98 26.42Q373.98 27.78 374.32 28.48Q374.66 29.17 375.07 29.39Q375.48 29.61 375.48 29.55L375.48 29.55L370.07 29.55Q370.07 29.61 370.48 29.38Q370.89 29.14 371.21 28.46Q371.54 27.78 371.54 26.42L371.54 26.42L371.54 9.42Q371.54 8.02 371.21 7.29Q370.89 6.56 370.48 6.31Q370.07 6.05 370.07 6.15L370.07 6.15L376.81 6.15Q379.46 6.15 381.18 7.02Q382.89 7.89 383.66 9.27Q384.42 10.64 384.42 12.27L384.42 12.27Q384.42 13.63 383.78 14.94Q383.13 16.25 381.92 17.22Q380.72 18.19 379.12 18.56L379.12 18.56L378.57 18.67L384.56 26.28Q385.75 27.61 386.53 28.32Q387.31 29.04 387.67 29.27Q388.03 29.51 388.09 29.55L388.09 29.55L384.12 29.55L374.87 17.78L376.91 17.78ZM400.34 29.95Q398.57 29.95 396.94 29.46Q395.31 28.97 394.02 28.08L394.02 28.08L394.02 23.97Q394.90 26.25 396.72 27.42Q398.54 28.59 400.51 28.59L400.51 28.59Q402.48 28.59 403.81 27.29Q405.14 25.98 405.14 24.04L405.14 24.04Q405.14 22.75 404.61 21.83Q404.08 20.91 402.93 20.11Q401.77 19.31 399.66 18.33L399.66 18.33Q396.70 16.97 395.36 15.49Q394.02 14.01 394.02 11.90L394.02 11.90Q394.02 10.10 394.88 8.69Q395.75 7.28 397.23 6.51Q398.71 5.75 400.48 5.75L400.48 5.75Q402.01 5.75 403.47 6.17Q404.93 6.60 406.19 7.38L406.19 7.38L406.19 11.05Q405.37 9.18 403.73 8.14Q402.08 7.11 400.38 7.11L400.38 7.11Q398.44 7.11 397.25 8.36Q396.06 9.62 396.06 11.36L396.06 11.36Q396.06 12.61 396.77 13.52Q397.49 14.42 398.52 15.03Q399.56 15.64 401.43 16.52L401.43 16.52Q403.33 17.44 404.56 18.22Q405.78 19.01 406.60 20.26Q407.41 21.52 407.41 23.32L407.41 23.32Q407.41 25.36 406.44 26.86Q405.48 28.36 403.86 29.16Q402.25 29.95 400.34 29.95L400.34 29.95Z" transform="translate(0, 0)"></path></g></svg></svg>