<?xml version="1.0" encoding="utf-8"?>
<!-- Generator: Adobe Illustrator 27.7.0, SVG Export Plug-In . SVG Version: 6.00 Build 0)  -->
<svg version="1.1" id="Layer_1" xmlns="http://www.w3.org/2000/svg" xmlns:xlink="http://www.w3.org/1999/xlink" x="0px" y="0px"
	 viewBox="0 0 1200 321.3" style="enable-background:new 0 0 1200 321.3;" xml:space="preserve">
<style type="text/css">
	.st0{fill:#E0C295;}
	.st1{fill:#FFFFFF;}
</style>
<g>
	<g id="Layer_1_00000026161390061378199150000004635093435393765273_">
		<g>
			<path class="st0" d="M733.5,126.9h2.5l-48.7-48.8l31.8-31.8h-2.5l-30.6,30.6l-62.8-62.9l-56,5.4L459.3,126.9h50.4L622.2,15.4
				l62.6,62.7l-19.5,19.4l-21.7-21.7h-40.3l-51.3,51H592l51.2-49.2l21,21.1L636,126.9h2.5h53.6l0,0h2.5l-28-28.1l19.4-19.4
				L733.5,126.9L733.5,126.9z M690.4,125.1l-50-0.1l25.1-25.1L690.4,125.1L690.4,125.1z"/>
			<g>
				<path class="st1" d="M53.1,190.8c-1.9,3.2-4.7,5.7-8.3,7.5s-7.8,2.7-12.7,2.7c-3,0-6.1-0.3-9.5-0.9v23c0,2.7,0.4,4.8,1.1,6.3
					c0.7,1.4,1.5,2.4,2.3,2.9c0.8,0.5,1.3,0.7,1.3,0.5H10.5c0,0.1,0.4,0,1.3-0.5c0.8-0.5,1.6-1.4,2.3-2.9c0.7-1.4,1-3.5,1-6.3v-52.8
					c0-2.8-0.3-5-1-6.4c-0.7-1.5-1.4-2.5-2.3-3c-0.8-0.5-1.3-0.7-1.3-0.6h20.7c3.6,0,6.5,0.2,8.9,0.7c2.3,0.5,4.4,1.1,6.1,2.1
					c3.2,1.6,5.6,3.9,7.3,7s2.5,6.4,2.5,9.9C56,183.9,55,187.6,53.1,190.8L53.1,190.8z M43.2,169.1c-3.1-3.1-7.2-4.6-12.3-4.6h-8.2
					V196c3,0.6,6.2,0.8,9.5,0.8c4.9,0,8.8-1.4,11.5-4.3s4.2-6.6,4.2-11.3C47.9,176.2,46.3,172.2,43.2,169.1z"/>
				<path class="st1" d="M102.2,194.1c2.4-1.5,4.2-3.5,5.4-5.9c1.2-2.4,1.8-5,1.8-7.6s-0.6-5.3-1.7-7.8c-1.2-2.4-2.9-4.4-5.3-6
					s-5.3-2.3-8.8-2.3h-9v58.6c0,2.8,0.3,4.9,1.1,6.4c0.7,1.4,1.5,2.4,2.3,2.9s1.3,0.6,1.3,0.5H72.6c0,0.1,0.4,0,1.3-0.5
					c0.8-0.5,1.6-1.4,2.3-2.9c0.7-1.4,1-3.5,1-6.3v-52.7c0-2.9-0.3-5.1-1-6.6s-1.4-2.5-2.3-3.1c-0.8-0.5-1.3-0.7-1.3-0.5h20.9
					c5.5,0,10,0.9,13.6,2.7c3.6,1.8,6.1,4.1,7.7,7c1.6,2.9,2.4,6,2.4,9.3c0,2.8-0.7,5.6-2,8.3c-1.3,2.7-3.2,5.1-5.8,7.1
					c-2.5,2-5.4,3.4-8.7,4.2l-1.7,0.3l18.6,23.6c2.5,2.7,4.5,4.9,6.1,6.3s2.8,2.5,3.5,2.9c0.7,0.5,1.2,0.8,1.3,0.8h-12.3l-28.7-36.5
					h6.3C97,196.3,99.8,195.6,102.2,194.1L102.2,194.1z"/>
				<path class="st1" d="M143.9,177.4c3.2-5.8,7.7-10.4,13.5-13.6c5.8-3.2,12.5-4.9,20.1-4.9c6.3,0,12.2,1.4,17.8,4.2
					s9.9,6.9,13.3,12.5s5,12.2,5,20s-1.6,14.1-4.8,19.9c-3.2,5.8-7.7,10.4-13.5,13.6s-12.5,4.9-20.1,4.9c-6.3,0-12.2-1.4-17.8-4.2
					s-9.9-6.9-13.3-12.5c-3.3-5.6-5-12.2-5-20S140.7,183.3,143.9,177.4L143.9,177.4z M201.2,179.9c-2.6-5.2-6.3-9.2-10.9-12.1
					c-4.6-2.9-9.8-4.4-15.6-4.4c-5.3,0-10,1.3-14.1,4s-7.3,6.4-9.6,11.3c-2.3,4.9-3.5,10.6-3.5,17s1.3,12.2,4,17.4
					c2.6,5.2,6.3,9.2,10.9,12.1s9.8,4.4,15.6,4.4c5.3,0,10-1.3,14.1-4s7.3-6.4,9.6-11.3c2.3-4.9,3.5-10.6,3.5-17
					S203.8,185.1,201.2,179.9z"/>
				<path class="st1" d="M243.9,164.5v29.9h18.2c2.6,0,4.3-0.4,5.2-1.2s1.3-1.4,1.3-1.9v10.3c0-0.2-0.2-0.5-0.5-1
					c-0.3-0.5-1-0.9-1.9-1.4c-1-0.5-2.3-0.7-4.2-0.7h-18.2V223c0,2.7,0.4,4.8,1.1,6.3c0.7,1.4,1.5,2.4,2.3,2.9
					c0.8,0.5,1.3,0.7,1.3,0.6h-16.8c0,0.1,0.4,0,1.3-0.5c0.8-0.5,1.6-1.5,2.3-2.9c0.7-1.4,1-3.6,1-6.4v-52.4c0-2.9-0.3-5.1-1-6.6
					s-1.4-2.6-2.3-3.2c-0.8-0.6-1.3-0.8-1.3-0.6H270V171c-0.4-1.7-1.3-3.2-3-4.5c-1.6-1.3-3.9-2-6.9-2L243.9,164.5L243.9,164.5z"/>
				<path class="st1" d="M290.9,177.4c3.2-5.8,7.7-10.4,13.5-13.6c5.8-3.2,12.5-4.9,20.1-4.9c6.3,0,12.2,1.4,17.8,4.2
					s10,6.9,13.3,12.5s5,12.2,5,20s-1.6,14.1-4.8,19.9c-3.2,5.8-7.7,10.4-13.5,13.6s-12.5,4.9-20.1,4.9c-6.3,0-12.2-1.4-17.8-4.2
					s-10-6.9-13.3-12.5c-3.3-5.6-5-12.2-5-20S287.7,183.3,290.9,177.4L290.9,177.4z M348.2,179.9c-2.6-5.2-6.3-9.2-10.9-12.1
					c-4.6-2.9-9.8-4.4-15.6-4.4c-5.3,0-10,1.3-14.1,4s-7.3,6.4-9.6,11.3s-3.5,10.6-3.5,17s1.3,12.2,4,17.4
					c2.6,5.2,6.3,9.2,10.9,12.1c4.6,2.9,9.8,4.4,15.6,4.4c5.3,0,10-1.3,14.1-4s7.3-6.4,9.6-11.3s3.5-10.6,3.5-17
					S350.8,185.1,348.2,179.9z"/>
				<path class="st1" d="M435.1,207.6c0,5.6-1.1,10.3-3.2,14.3c-2.1,4-5.1,7-8.9,9.1c-3.8,2.1-8.3,3.1-13.3,3.1
					c-8.4,0-14.8-2.3-19.4-7s-6.9-11.1-6.9-19.3v-37.8c0-2.8-0.3-4.9-1-6.4s-1.4-2.4-2.2-2.9c-0.8-0.5-1.2-0.7-1.2-0.5h16.5
					c0-0.1-0.4,0-1.2,0.5s-1.5,1.4-2.2,2.9c-0.7,1.4-1,3.4-1,6.1v38.1c0,6.8,1.6,12.1,4.9,15.8s8.1,5.6,14.4,5.6
					c5.8,0,10.4-1.8,13.8-5.3c3.4-3.6,5.1-8.8,5.1-15.8v-38.1c0-2.8-0.4-4.9-1.1-6.4c-0.7-1.4-1.5-2.4-2.3-2.9
					c-0.8-0.5-1.3-0.7-1.3-0.5h15.2c0-0.1-0.4,0-1.3,0.5c-0.8,0.5-1.6,1.5-2.3,2.9c-0.7,1.4-1,3.6-1,6.4L435.1,207.6L435.1,207.6z"
					/>
				<path class="st1" d="M526.1,160.2c-1,0.2-2,1-2.9,2.4s-1.4,3.8-1.4,7.2v65.9l-54-63v50.5c0,3.4,0.6,5.8,1.8,7.1s2.4,2.2,3.5,2.4
					h-14.9c1-0.2,2-1,3-2.4c1-1.4,1.5-3.8,1.5-7.2v-52.7c0-2.4-0.8-4.6-2.4-6.5c-1.6-2-3.7-3.2-6.1-3.7h13.1l49.5,57.7v-48.1
					c0-5.4-1.8-8.6-5.5-9.6L526.1,160.2L526.1,160.2z"/>
				<path class="st1" d="M567.5,232.8h-20.8c0,0.2,0.4,0,1.3-0.6c0.8-0.6,1.6-1.7,2.3-3.3c0.7-1.6,1-4,1-7.1V170
					c0-2.7-0.3-4.8-1-6.3c-0.7-1.4-1.4-2.4-2.3-2.9c-0.8-0.5-1.3-0.7-1.3-0.5h20.7c10.8,0,19.3,1.8,25.5,5.3
					c5.5,3.1,9.8,7.3,12.9,12.6c3,5.3,4.5,11.2,4.5,17.8c0,7.2-1.4,13.4-4.3,18.6c-2.8,5.2-6.9,9.4-12.1,12.4
					C587.4,230.8,578.6,232.8,567.5,232.8L567.5,232.8z M580,165.8c-3.5-0.9-7.7-1.4-12.5-1.4h-8.5v64.1h8.5
					c5.8,0,10.5-0.5,14.2-1.5c3.7-1,6.9-2.5,9.5-4.5c3.4-2.7,6.1-6.2,8-10.5c1.9-4.3,2.8-9.4,2.8-15.1c0-6.1-1.1-11.5-3.2-16.1
					c-2.2-4.6-5.1-8.1-8.8-10.6C586.8,168.2,583.5,166.8,580,165.8L580,165.8z"/>
				<path class="st1" d="M690.3,194.1c2.4-1.5,4.2-3.5,5.4-5.9c1.2-2.4,1.8-5,1.8-7.6s-0.6-5.3-1.7-7.8s-2.9-4.4-5.3-6
					s-5.3-2.3-8.8-2.3h-9v58.6c0,2.8,0.3,4.9,1.1,6.4c0.7,1.4,1.5,2.4,2.3,2.9s1.3,0.6,1.3,0.5h-16.8c0,0.1,0.4,0,1.3-0.5
					c0.8-0.5,1.6-1.4,2.3-2.9c0.7-1.4,1-3.5,1-6.3v-52.7c0-2.9-0.3-5.1-1-6.6s-1.4-2.5-2.3-3.1c-0.8-0.5-1.3-0.7-1.3-0.5h20.9
					c5.5,0,10,0.9,13.5,2.7c3.5,1.8,6.1,4.1,7.7,7s2.4,6,2.4,9.3c0,2.8-0.7,5.6-2,8.3c-1.3,2.7-3.2,5.1-5.8,7.1
					c-2.5,2-5.4,3.4-8.7,4.2l-1.7,0.3l18.6,23.6c2.5,2.7,4.5,4.9,6.1,6.3s2.8,2.5,3.5,2.9c0.7,0.5,1.2,0.8,1.3,0.8h-12.3l-28.7-36.5
					h6.3C685.1,196.3,687.9,195.6,690.3,194.1L690.3,194.1z"/>
				<path class="st1" d="M730.3,232.8c0,0.2,0.4,0.1,1.3-0.5c0.8-0.5,1.6-1.6,2.3-3.2s1-3.9,1-6.9v-51.8c0-2.9-0.3-5.1-1-6.6
					s-1.4-2.6-2.3-3.1c-0.8-0.6-1.3-0.7-1.3-0.5h38.2v10.6c-1.3-4.2-5.1-6.3-11.4-6.3h-14.7v29.9h18.1c1.4,0,2.6-0.2,3.6-0.7
					c1-0.5,1.7-0.9,2.2-1.4s0.8-0.8,0.8-0.9v10.2c-0.1-0.1-0.3-0.5-0.8-0.9c-0.5-0.5-1.2-0.9-2.2-1.4c-1-0.4-2.1-0.6-3.5-0.6h-18.2
					v29.9h16.5c3.2,0,5.9-0.6,8.2-1.9c2.3-1.3,3.9-3,4.9-5l-1.9,11.2L730.3,232.8L730.3,232.8z"/>
				<path class="st1" d="M803.5,204.7l-6.8,16.8c-1,2.6-1.6,4.8-1.6,6.4c0,2.3,1.1,4,3.2,5h-15.1c0.7,0,1.7-0.7,3.1-2.1
					c1.3-1.4,2.9-4.2,4.6-8.3l27.5-65.5l27.3,65.8c1.5,3.8,3,6.4,4.5,7.8c1.4,1.4,2.6,2.2,3.4,2.3h-17.5c1.8-0.8,2.6-2.1,2.6-3.9
					c0-1.5-0.6-3.6-1.7-6.3l-7.4-17.9L803.5,204.7L803.5,204.7z M828,200.3l-11.5-28.2l-11.3,28.2H828L828,200.3z"/>
				<path class="st1" d="M870.5,163.7c-0.7-1.4-1.4-2.4-2.3-2.9c-0.8-0.5-1.3-0.7-1.3-0.5h16.8c0-0.1-0.4,0-1.3,0.5
					c-0.8,0.5-1.6,1.5-2.3,2.9c-0.7,1.4-1.1,3.6-1.1,6.4v58.5h17.3c3.2,0,5.9-0.6,8.2-1.9c2.3-1.3,3.9-3,4.9-5l-1.9,11.2h-40.6
					c0,0.2,0.4,0.1,1.3-0.5c0.8-0.5,1.6-1.6,2.3-3.2s1-3.9,1-6.9v-52.2C871.5,167.2,871.2,165.1,870.5,163.7L870.5,163.7z"/>
				<path class="st1" d="M920.1,166.3c-2,1.2-3.5,2.7-4.4,4.5l1.5-10.6h50l1.5,10.6c-0.9-1.8-2.4-3.3-4.4-4.5
					c-2-1.2-4.6-1.8-7.7-1.8H946V223c0,2.8,0.3,5,1,6.4s1.5,2.5,2.3,2.9c0.8,0.5,1.3,0.6,1.3,0.4h-16.8c0,0.2,0.4,0.1,1.3-0.4
					s1.6-1.5,2.3-2.9c0.7-1.4,1-3.6,1-6.5v-58.5h-10.5C924.7,164.5,922.2,165.1,920.1,166.3L920.1,166.3z"/>
				<path class="st1" d="M985.4,177.4c3.2-5.8,7.7-10.4,13.5-13.6c5.8-3.2,12.5-4.9,20.1-4.9c6.3,0,12.2,1.4,17.8,4.2
					s9.9,6.9,13.3,12.5c3.3,5.6,5,12.2,5,20s-1.6,14.1-4.8,19.9c-3.2,5.8-7.7,10.4-13.5,13.6s-12.5,4.9-20.1,4.9
					c-6.3,0-12.2-1.4-17.8-4.2s-10-6.9-13.3-12.5c-3.3-5.6-5-12.2-5-20S982.2,183.3,985.4,177.4L985.4,177.4z M1042.6,179.9
					c-2.6-5.2-6.3-9.2-10.9-12.1c-4.6-2.9-9.8-4.4-15.6-4.4c-5.3,0-10,1.3-14.1,4s-7.3,6.4-9.7,11.3s-3.5,10.6-3.5,17
					s1.3,12.2,4,17.4c2.6,5.2,6.3,9.2,10.9,12.1s9.8,4.4,15.6,4.4c5.3,0,10-1.3,14.1-4s7.3-6.4,9.7-11.3c2.3-4.9,3.5-10.6,3.5-17
					S1045.3,185.1,1042.6,179.9z"/>
				<path class="st1" d="M1102.9,194.1c2.4-1.5,4.2-3.5,5.4-5.9c1.2-2.4,1.8-5,1.8-7.6s-0.6-5.3-1.7-7.8s-2.9-4.4-5.3-6
					s-5.3-2.3-8.8-2.3h-9v58.6c0,2.8,0.3,4.9,1.1,6.4c0.7,1.4,1.5,2.4,2.3,2.9s1.3,0.6,1.3,0.5h-16.8c0,0.1,0.4,0,1.3-0.5
					c0.8-0.5,1.6-1.4,2.3-2.9c0.7-1.4,1-3.5,1-6.3v-52.7c0-2.9-0.3-5.1-1-6.6s-1.4-2.5-2.3-3.1c-0.8-0.5-1.3-0.7-1.3-0.5h20.9
					c5.5,0,10,0.9,13.6,2.7c3.6,1.8,6.1,4.1,7.7,7s2.4,6,2.4,9.3c0,2.8-0.7,5.6-2,8.3c-1.3,2.7-3.2,5.1-5.8,7.1
					c-2.5,2-5.4,3.4-8.7,4.2l-1.7,0.3l18.6,23.6c2.5,2.7,4.5,4.9,6.1,6.3s2.8,2.5,3.5,2.9c0.7,0.5,1.2,0.8,1.3,0.8h-12.3l-28.7-36.5
					h6.3C1097.7,196.3,1100.5,195.6,1102.9,194.1L1102.9,194.1z"/>
				<path class="st1" d="M1151.5,232.6c-3.4-1-6.4-2.4-9.1-4.3v-12.8c1.8,4.7,4.6,8.3,8.4,10.7c3.8,2.4,7.7,3.6,11.8,3.6
					s7.5-1.4,10.2-4.1c2.7-2.7,4.1-6.1,4.1-10.1c0-2.7-0.6-5-1.6-6.9c-1.1-1.9-2.8-3.7-5.2-5.3c-2.4-1.6-5.8-3.5-10.1-5.5
					c-6.1-2.8-10.6-5.8-13.3-8.8c-2.8-3.1-4.2-6.8-4.2-11.1c0-3.7,0.9-7.1,2.7-10c1.8-2.9,4.2-5.2,7.3-6.8s6.4-2.4,10.1-2.4
					c3.2,0,6.3,0.4,9.3,1.3s5.8,2.1,8.4,3.8v11.4c-1.7-3.9-4.2-6.9-7.7-9c-3.4-2.1-6.9-3.2-10.4-3.2c-4,0-7.2,1.3-9.7,3.9
					s-3.7,5.7-3.7,9.3c0,2.6,0.7,4.8,2.2,6.7c1.5,1.9,3.3,3.4,5.4,4.7c2.1,1.3,5.2,2.8,9,4.6c3.9,1.9,7.2,3.7,9.7,5.3
					c2.5,1.6,4.6,3.7,6.3,6.3s2.5,5.8,2.5,9.5c0,4.2-1,7.9-3,11s-4.7,5.5-8,7.1s-7,2.5-10.9,2.5
					C1158.4,234.1,1154.9,233.6,1151.5,232.6L1151.5,232.6z"/>
			</g>
			<path d="M597.7,256"/>
			<g>
				<path class="st1" d="M186.3,286.1v2.3h-10.6v16.2h12.8v2.3h-15.4v-38.9h15.4v2.3h-12.8v15.7L186.3,286.1L186.3,286.1z"/>
				<path class="st1" d="M239.1,307v-38.9h2.6v36.6h12.2v2.3H239.1z"/>
				<path class="st1" d="M321.5,286.1v2.3h-10.6v16.2h12.8v2.3h-15.4v-38.9h15.4v2.3h-12.8v15.7L321.5,286.1L321.5,286.1z"/>
				<path class="st1" d="M355.4,277.5v0.8h-2.5v-1c0-4.1-1.6-7.2-5.8-7.2s-5.8,3.1-5.8,7.2c0,9.5,14.1,9.6,14.1,20.4
					c0,5.6-2.5,9.7-8.4,9.7s-8.4-4.1-8.4-9.7v-2h2.5v2.2c0,4.2,1.6,7.2,5.9,7.2s5.9-3,5.9-7.2c0-9.3-14.1-9.5-14.1-20.4
					c0-5.8,2.6-9.6,8.3-9.7C353,267.8,355.4,271.9,355.4,277.5L355.4,277.5z"/>
				<path class="st1" d="M377.4,307v-36.6h-8v-2.3h18.4v2.3H380V307H377.4z"/>
				<path class="st1" d="M442.3,307v-36.6h-8v-2.3h18.4v2.3h-7.9V307H442.3z"/>
				<path class="st1" d="M480.4,286.1v2.3h-10.6v16.2h12.8v2.3h-15.4v-38.9h15.4v2.3h-12.8v15.7L480.4,286.1L480.4,286.1z"/>
				<path class="st1" d="M550.4,307h-2.6l-8.2-34.4V307h-2.3v-38.9h3.7l8.2,34.4l8.1-34.4h3.7V307h-2.5v-34.6L550.4,307L550.4,307z"
					/>
				<path class="st1" d="M620.5,268.1c6,0,8.6,4,8.6,9.7v19.6c0,5.7-2.6,9.7-8.6,9.7H612v-38.9L620.5,268.1L620.5,268.1z
					 M620.5,304.7c4.3,0,6.1-3,6.1-7.2v-19.8c0-4.3-1.8-7.2-6.1-7.2h-6v34.3L620.5,304.7L620.5,304.7z"/>
				<path class="st1" d="M657.7,286.1v2.3H647v16.2h12.8v2.3h-15.3v-38.9h15.3v2.3H647v15.7L657.7,286.1L657.7,286.1z"/>
				<path class="st1" d="M717.2,288.7V307h-2.6v-38.9h2.6v18.3h12.1v-18.3h2.6V307h-2.6v-18.3H717.2z"/>
				<path class="st1" d="M799.3,277.5v0.8h-2.5v-1c0-4.1-1.6-7.2-5.8-7.2s-5.8,3.1-5.8,7.2c0,9.5,14.1,9.6,14.1,20.4
					c0,5.6-2.5,9.7-8.4,9.7s-8.4-4.1-8.4-9.7v-2h2.5v2.2c0,4.2,1.6,7.2,5.9,7.2s5.9-3,5.9-7.2c0-9.3-14.1-9.5-14.1-20.4
					c0-5.8,2.6-9.6,8.3-9.7C796.9,267.8,799.3,271.9,799.3,277.5L799.3,277.5z"/>
				<path class="st1" d="M831,277.5v0.8h-2.5v-1c0-4.1-1.6-7.2-5.8-7.2s-5.8,3.1-5.8,7.2c0,9.5,14.1,9.6,14.1,20.4
					c0,5.6-2.5,9.7-8.4,9.7s-8.4-4.1-8.4-9.7v-2h2.5v2.2c0,4.2,1.6,7.2,5.9,7.2s5.9-3,5.9-7.2c0-9.3-14.1-9.5-14.1-20.4
					c0-5.8,2.6-9.6,8.3-9.7C828.6,267.8,831,271.9,831,277.5L831,277.5z"/>
				<path class="st1" d="M846.3,307v-38.9h2.6v36.6h12.2v2.3H846.3z"/>
				<path class="st1" d="M889.2,286.1v2.3h-10.6v16.2h12.8v2.3H876v-38.9h15.3v2.3h-12.8v15.7L889.2,286.1L889.2,286.1z"/>
				<path class="st1" d="M958.8,287.1v2.3h-10.1V307h-2.6v-38.9h14.8v2.3h-12.2v16.6H958.8z"/>
				<path class="st1" d="M1021.7,286.1v2.3h-10.6v16.2h12.8v2.3h-15.3v-38.9h15.3v2.3h-12.8v15.7L1021.7,286.1L1021.7,286.1z"/>
				<path class="st1" d="M1052.4,286.1v2.3h-10.6v16.2h12.8v2.3h-15.3v-38.9h15.3v2.3h-12.8v15.7L1052.4,286.1L1052.4,286.1z"/>
				<path class="st1" d="M158.2,307.1l-6.4-18.7c3.8-0.9,5.5-3.5,5.5-8v-3.4c0-5.5-2.4-8.8-8.3-8.8h-8.1v38.9h2.6v-18.4h4.1
					c1,0,1.8-0.1,2.4-0.1l6.3,18.5L158.2,307.1L158.2,307.1z M143.4,287.3v-16.9h5.5c4.2,0,5.8,2.5,5.8,6.7v3.7
					c0,5.2-2.7,6.5-7.2,6.5H143.4z"/>
				<path class="st1" d="M993.1,307.1l-6.4-18.7c3.8-0.9,5.5-3.5,5.5-8v-3.4c0-5.5-2.4-8.8-8.3-8.8h-8.1v38.9h2.6v-18.4h4.1
					c1,0,1.8-0.1,2.4-0.1l6.3,18.5L993.1,307.1L993.1,307.1z M978.3,287.3v-16.9h5.5c4.2,0,5.8,2.5,5.8,6.7v3.7
					c0,5.2-2.7,6.5-7.2,6.5H978.3L978.3,287.3z"/>
				<path class="st1" d="M213.5,268.1l-8.7,38.9h2l1.6-7.3h10.2l1.6,7.3h2.2L213.5,268.1L213.5,268.1z M208.7,297.9l4.7-21.3
					l4.8,21.3H208.7L208.7,297.9z"/>
				<path class="st1" d="M409.9,268.1l-8.7,38.9h2l1.6-7.3h10.2l1.6,7.3h2.2L409.9,268.1L409.9,268.1z M405.2,297.9l4.7-21.3
					l4.8,21.3H405.2L405.2,297.9z"/>
				<path class="st1" d="M585.8,268l-8.7,38.9h2l1.6-7.3H591l1.6,7.3h2.2L585.8,268L585.8,268z M581.1,297.8l4.7-21.3l4.8,21.3
					H581.1z"/>
				<path class="st1" d="M757.3,268.1l-8.7,38.9h2l1.6-7.3h10.2l1.6,7.3h2.2L757.3,268.1L757.3,268.1z M752.5,297.9l4.7-21.3
					l4.8,21.3H752.5z"/>
			</g>
		</g>
	</g>
</g>
</svg>
