<?xml version="1.0" encoding="UTF-8"?>
<svg xmlns="http://www.w3.org/2000/svg" version="1.1" viewBox="0 0 1200 321.32">
  <defs>
    <style>
      .cls-1 {
        fill: #e0c295;
      }
    </style>
  </defs>
  <!-- Generator: Adobe Illustrator 28.6.0, SVG Export Plug-In . SVG Version: 1.2.0 Build 709)  -->
  <g>
    <g id="Layer_1">
      <g>
        <path class="cls-1" d="M733.5,126.86h2.54l-48.71-48.76,31.83-31.82h-2.48l-30.6,30.57-62.85-62.91-56.05,5.41-107.84,107.52h50.37l112.46-111.45,62.64,62.7-19.45,19.43-21.68-21.68h-40.31l-51.28,50.99h39.91l51.22-49.23,20.97,21.09-28.16,28.14h2.55s53.58,0,53.58,0h0s2.52,0,2.52,0l-28.05-28.05,19.44-19.44,47.45,47.49ZM690.41,125.1l-50.04-.05,25.07-25.06,24.97,25.12Z"/>
        <g>
          <path d="M53.09,190.79c-1.93,3.2-4.69,5.71-8.28,7.54s-7.8,2.74-12.66,2.74c-2.95,0-6.12-.32-9.49-.95v22.99c0,2.74.35,4.84,1.06,6.28.7,1.44,1.48,2.41,2.32,2.9.84.49,1.27.67,1.27.53H10.53c0,.14.42-.04,1.27-.53.84-.49,1.6-1.44,2.27-2.85.67-1.4,1-3.52,1-6.33v-52.84c0-2.81-.33-4.96-1-6.43-.67-1.48-1.42-2.48-2.27-3.01-.84-.53-1.27-.72-1.27-.58h20.67c3.59,0,6.54.23,8.86.68,2.32.46,4.36,1.14,6.12,2.06,3.16,1.62,5.59,3.95,7.28,7.01,1.69,3.06,2.53,6.35,2.53,9.86,0,4.08-.97,7.72-2.9,10.92ZM43.23,169.11c-3.09-3.09-7.21-4.64-12.34-4.64h-8.23v31.54c3.02.56,6.19.84,9.49.84,4.92,0,8.77-1.42,11.55-4.27,2.78-2.85,4.17-6.63,4.17-11.34,0-4.99-1.55-9.03-4.64-12.13Z"/>
          <path d="M102.19,194.06c2.39-1.51,4.2-3.48,5.43-5.91,1.23-2.43,1.85-4.97,1.85-7.65s-.58-5.33-1.74-7.75c-1.16-2.42-2.94-4.41-5.33-5.96-2.39-1.55-5.31-2.32-8.75-2.32h-8.97v58.64c0,2.81.35,4.94,1.06,6.38.7,1.44,1.48,2.39,2.32,2.85.84.46,1.27.62,1.27.48h-16.77c0,.14.42-.04,1.27-.53.84-.49,1.6-1.44,2.27-2.85.67-1.4,1-3.52,1-6.33v-52.74c0-2.88-.33-5.08-1-6.59-.67-1.51-1.42-2.53-2.27-3.06-.84-.53-1.27-.68-1.27-.47h20.88c5.48,0,10,.9,13.55,2.69,3.55,1.79,6.12,4.11,7.7,6.96,1.58,2.85,2.37,5.96,2.37,9.34,0,2.81-.67,5.57-2,8.28-1.34,2.71-3.25,5.06-5.75,7.07-2.5,2-5.4,3.39-8.7,4.17l-1.69.32,18.56,23.63c2.46,2.74,4.5,4.85,6.12,6.33,1.62,1.48,2.79,2.46,3.53,2.95.74.49,1.18.77,1.32.84h-12.34l-28.69-36.49h6.33c3.23,0,6.05-.75,8.44-2.27Z"/>
          <path d="M143.9,177.45c3.2-5.84,7.7-10.37,13.5-13.61,5.8-3.23,12.5-4.85,20.09-4.85,6.33,0,12.25,1.39,17.77,4.17,5.52,2.78,9.95,6.94,13.29,12.5,3.34,5.56,5.01,12.24,5.01,20.04s-1.6,14.1-4.8,19.93c-3.2,5.84-7.7,10.37-13.5,13.61-5.8,3.24-12.5,4.85-20.09,4.85-6.33,0-12.25-1.39-17.77-4.17-5.52-2.78-9.95-6.94-13.29-12.5-3.34-5.55-5.01-12.23-5.01-20.04s1.6-14.1,4.8-19.93ZM201.17,179.92c-2.64-5.17-6.26-9.21-10.86-12.13-4.61-2.92-9.79-4.38-15.56-4.38-5.27,0-9.97,1.34-14.08,4.01-4.11,2.67-7.33,6.45-9.65,11.34-2.32,4.89-3.48,10.57-3.48,17.03s1.32,12.18,3.96,17.35c2.64,5.17,6.26,9.21,10.86,12.13,4.6,2.92,9.79,4.38,15.56,4.38,5.27,0,9.97-1.34,14.08-4.01,4.11-2.67,7.33-6.45,9.65-11.34,2.32-4.89,3.48-10.56,3.48-17.03s-1.32-12.18-3.96-17.35Z"/>
          <path d="M243.94,164.47v29.95h18.25c2.6,0,4.34-.39,5.22-1.16.88-.77,1.32-1.4,1.32-1.9v10.34c0-.21-.16-.54-.47-1-.32-.46-.95-.91-1.9-1.37-.95-.46-2.34-.68-4.17-.68h-18.25v24.36c0,2.74.35,4.84,1.06,6.28.7,1.44,1.48,2.43,2.32,2.95.84.53,1.27.72,1.27.58h-16.77c0,.14.42-.04,1.27-.53.84-.49,1.6-1.46,2.27-2.9.67-1.44,1-3.57,1-6.38v-52.42c0-2.88-.33-5.08-1-6.59-.67-1.51-1.42-2.57-2.27-3.17-.84-.6-1.27-.79-1.27-.58h38.18v10.76c-.35-1.69-1.34-3.2-2.95-4.54-1.62-1.33-3.9-2-6.86-2h-16.24Z"/>
          <path d="M290.93,177.45c3.2-5.84,7.7-10.37,13.5-13.61,5.8-3.23,12.5-4.85,20.09-4.85,6.33,0,12.25,1.39,17.77,4.17,5.52,2.78,9.95,6.94,13.29,12.5,3.34,5.56,5.01,12.24,5.01,20.04s-1.6,14.1-4.8,19.93c-3.2,5.84-7.7,10.37-13.5,13.61-5.8,3.24-12.5,4.85-20.09,4.85-6.33,0-12.25-1.39-17.77-4.17-5.52-2.78-9.95-6.94-13.29-12.5-3.34-5.55-5.01-12.23-5.01-20.04s1.6-14.1,4.8-19.93ZM348.2,179.92c-2.64-5.17-6.26-9.21-10.86-12.13-4.61-2.92-9.79-4.38-15.56-4.38-5.27,0-9.97,1.34-14.08,4.01-4.11,2.67-7.33,6.45-9.65,11.34-2.32,4.89-3.48,10.57-3.48,17.03s1.32,12.18,3.96,17.35c2.64,5.17,6.26,9.21,10.86,12.13,4.6,2.92,9.79,4.38,15.56,4.38,5.27,0,9.97-1.34,14.08-4.01,4.11-2.67,7.33-6.45,9.65-11.34,2.32-4.89,3.48-10.56,3.48-17.03s-1.32-12.18-3.96-17.35Z"/>
          <path d="M435.06,207.61c0,5.56-1.06,10.32-3.16,14.29-2.11,3.97-5.08,7-8.91,9.07-3.83,2.07-8.28,3.11-13.34,3.11-8.37,0-14.84-2.32-19.41-6.96-4.57-4.64-6.86-11.08-6.86-19.3v-37.76c0-2.81-.33-4.94-1-6.38-.67-1.44-1.41-2.41-2.21-2.9-.81-.49-1.21-.67-1.21-.53h16.45c0-.14-.4.04-1.21.53-.81.49-1.55,1.44-2.21,2.85-.67,1.41-1,3.45-1,6.12v38.08c0,6.82,1.64,12.09,4.9,15.82s8.07,5.59,14.4,5.59c5.84,0,10.44-1.78,13.82-5.33,3.37-3.55,5.06-8.81,5.06-15.77v-38.07c0-2.81-.35-4.94-1.06-6.38-.7-1.44-1.48-2.41-2.32-2.9-.84-.49-1.27-.67-1.27-.53h15.19c0-.14-.42.04-1.27.53-.84.49-1.62,1.46-2.32,2.9-.7,1.44-1.05,3.57-1.05,6.38v37.55Z"/>
          <path d="M526.08,160.25c-.98.21-1.95,1-2.9,2.37-.95,1.37-1.42,3.78-1.42,7.22v65.92l-54-62.97v50.52c0,3.38.6,5.75,1.79,7.12,1.19,1.37,2.36,2.16,3.48,2.37h-14.87c.98-.21,1.99-1,3.01-2.37,1.02-1.37,1.53-3.78,1.53-7.23v-52.74c0-2.39-.81-4.57-2.43-6.54-1.62-1.97-3.66-3.2-6.12-3.69h13.08l49.47,57.69v-48.1c0-5.41-1.83-8.61-5.49-9.6h14.87Z"/>
          <path d="M567.53,232.82h-20.78c0,.21.42.02,1.27-.58.84-.6,1.6-1.7,2.27-3.32.67-1.62,1-3.97,1-7.07v-51.89c0-2.74-.33-4.83-1-6.28-.67-1.44-1.42-2.41-2.27-2.9-.84-.49-1.27-.67-1.27-.53h20.67c10.76,0,19.26,1.76,25.52,5.27,5.55,3.09,9.84,7.28,12.87,12.55,3.02,5.27,4.54,11.22,4.54,17.82,0,7.17-1.43,13.38-4.27,18.61-2.85,5.24-6.87,9.37-12.07,12.39-6.61,3.94-15.44,5.91-26.47,5.91ZM579.98,165.84c-3.52-.91-7.7-1.37-12.55-1.37h-8.54v64.13h8.54c5.76,0,10.49-.49,14.19-1.48,3.69-.98,6.87-2.49,9.55-4.54,3.44-2.67,6.1-6.17,7.96-10.49,1.86-4.32,2.8-9.37,2.8-15.13,0-6.12-1.07-11.48-3.22-16.08-2.15-4.61-5.08-8.14-8.81-10.6-3.09-2.04-6.4-3.52-9.91-4.43Z"/>
          <path d="M690.3,194.06c2.39-1.51,4.2-3.48,5.43-5.91,1.23-2.43,1.85-4.97,1.85-7.65s-.58-5.33-1.74-7.75c-1.16-2.42-2.94-4.41-5.33-5.96-2.39-1.55-5.31-2.32-8.75-2.32h-8.97v58.64c0,2.81.35,4.94,1.06,6.38.7,1.44,1.48,2.39,2.32,2.85.84.46,1.27.62,1.27.48h-16.77c0,.14.42-.04,1.27-.53.84-.49,1.6-1.44,2.27-2.85.67-1.4,1-3.52,1-6.33v-52.74c0-2.88-.33-5.08-1-6.59-.67-1.51-1.42-2.53-2.27-3.06-.84-.53-1.27-.68-1.27-.47h20.88c5.49,0,10,.9,13.55,2.69,3.55,1.79,6.12,4.11,7.7,6.96,1.58,2.85,2.37,5.96,2.37,9.34,0,2.81-.67,5.57-2,8.28-1.34,2.71-3.25,5.06-5.75,7.07-2.5,2-5.4,3.39-8.7,4.17l-1.69.32,18.56,23.63c2.46,2.74,4.5,4.85,6.12,6.33s2.8,2.46,3.53,2.95c.74.49,1.18.77,1.32.84h-12.34l-28.69-36.49h6.33c3.23,0,6.05-.75,8.44-2.27Z"/>
          <path d="M730.27,232.82c0,.21.42.05,1.27-.48.84-.53,1.6-1.58,2.27-3.16s1-3.88,1-6.91v-51.79c0-2.88-.33-5.08-1-6.59-.67-1.51-1.42-2.55-2.27-3.11-.84-.56-1.27-.74-1.27-.53h38.18v10.55c-1.27-4.22-5.06-6.33-11.39-6.33h-14.66v29.95h18.14c1.41,0,2.6-.23,3.59-.69.98-.46,1.72-.93,2.21-1.42s.77-.81.84-.95v10.23c-.07-.14-.35-.46-.84-.95-.49-.49-1.21-.95-2.16-1.37-.95-.42-2.13-.63-3.53-.63h-18.25v29.95h16.45c3.16,0,5.89-.65,8.17-1.95,2.28-1.3,3.92-2.97,4.9-5.01l-1.9,11.18h-39.76Z"/>
          <path d="M803.47,204.66l-6.75,16.77c-1.05,2.6-1.58,4.75-1.58,6.43,0,2.32,1.06,3.97,3.16,4.96h-15.08c.7,0,1.72-.7,3.06-2.11,1.34-1.4,2.88-4.18,4.64-8.33l27.53-65.5,27.32,65.81c1.55,3.8,3.04,6.4,4.48,7.8,1.44,1.41,2.58,2.18,3.43,2.32h-17.51c1.76-.84,2.64-2.14,2.64-3.9,0-1.48-.56-3.59-1.69-6.33l-7.38-17.93h-26.26ZM828.04,200.33l-11.5-28.16-11.29,28.16h22.78Z"/>
          <path d="M870.5,163.68c-.67-1.44-1.42-2.41-2.27-2.9-.84-.49-1.27-.67-1.27-.53h16.77c0-.14-.42.04-1.27.53-.84.49-1.62,1.46-2.32,2.9-.7,1.44-1.06,3.57-1.06,6.38v58.54h17.3c3.16,0,5.89-.65,8.17-1.95,2.28-1.3,3.92-2.97,4.91-5.01l-1.9,11.18h-40.61c0,.21.42.05,1.27-.48.84-.53,1.6-1.58,2.27-3.16s1-3.88,1-6.91v-52.21c0-2.81-.33-4.94-1-6.38Z"/>
          <path d="M920.12,166.27c-2.04,1.2-3.52,2.71-4.43,4.54l1.48-10.55h49.99l1.48,10.55c-.91-1.83-2.39-3.34-4.43-4.54-2.04-1.19-4.61-1.79-7.7-1.79h-10.55v58.54c0,2.81.35,4.96,1.05,6.43s1.48,2.46,2.32,2.95c.84.49,1.27.63,1.27.42h-16.77c0,.21.42.07,1.26-.42.84-.49,1.6-1.46,2.27-2.9.67-1.44,1-3.6,1-6.49v-58.54h-10.55c-3.09,0-5.66.6-7.7,1.79Z"/>
          <path d="M985.36,177.45c3.2-5.84,7.7-10.37,13.5-13.61,5.8-3.23,12.5-4.85,20.09-4.85,6.33,0,12.25,1.39,17.77,4.17s9.95,6.94,13.29,12.5c3.34,5.56,5.01,12.24,5.01,20.04s-1.6,14.1-4.8,19.93c-3.2,5.84-7.7,10.37-13.5,13.61-5.8,3.24-12.5,4.85-20.09,4.85-6.33,0-12.25-1.39-17.77-4.17-5.52-2.78-9.95-6.94-13.29-12.5-3.34-5.55-5.01-12.23-5.01-20.04s1.6-14.1,4.8-19.93ZM1042.63,179.92c-2.64-5.17-6.26-9.21-10.86-12.13-4.61-2.92-9.79-4.38-15.56-4.38-5.27,0-9.97,1.34-14.08,4.01s-7.33,6.45-9.65,11.34c-2.32,4.89-3.48,10.57-3.48,17.03s1.32,12.18,3.96,17.35c2.64,5.17,6.26,9.21,10.86,12.13s9.79,4.38,15.56,4.38c5.27,0,9.97-1.34,14.08-4.01s7.33-6.45,9.65-11.34c2.32-4.89,3.48-10.56,3.48-17.03s-1.32-12.18-3.96-17.35Z"/>
          <path d="M1102.9,194.06c2.39-1.51,4.2-3.48,5.43-5.91,1.23-2.43,1.85-4.97,1.85-7.65s-.58-5.33-1.74-7.75c-1.16-2.42-2.94-4.41-5.33-5.96-2.39-1.55-5.31-2.32-8.75-2.32h-8.97v58.64c0,2.81.35,4.94,1.06,6.38.7,1.44,1.48,2.39,2.32,2.85.84.46,1.27.62,1.27.48h-16.77c0,.14.42-.04,1.27-.53.84-.49,1.6-1.44,2.27-2.85.67-1.4,1-3.52,1-6.33v-52.74c0-2.88-.33-5.08-1-6.59-.67-1.51-1.42-2.53-2.27-3.06-.84-.53-1.27-.68-1.27-.47h20.88c5.49,0,10,.9,13.55,2.69,3.55,1.79,6.12,4.11,7.7,6.96,1.58,2.85,2.37,5.96,2.37,9.34,0,2.81-.67,5.57-2,8.28-1.34,2.71-3.25,5.06-5.75,7.07-2.5,2-5.4,3.39-8.7,4.17l-1.69.32,18.56,23.63c2.46,2.74,4.5,4.85,6.12,6.33s2.8,2.46,3.53,2.95c.74.49,1.18.77,1.32.84h-12.34l-28.69-36.49h6.33c3.23,0,6.05-.75,8.44-2.27Z"/>
          <path d="M1151.53,232.56c-3.37-1.02-6.4-2.44-9.07-4.27v-12.76c1.83,4.71,4.62,8.28,8.38,10.71,3.76,2.43,7.68,3.64,11.76,3.64s7.49-1.35,10.23-4.06c2.74-2.71,4.11-6.06,4.11-10.07,0-2.67-.55-4.96-1.63-6.85-1.09-1.9-2.83-3.67-5.22-5.33-2.39-1.65-5.77-3.5-10.12-5.54-6.12-2.81-10.57-5.75-13.34-8.81-2.78-3.06-4.17-6.77-4.17-11.13,0-3.73.9-7.05,2.69-9.97,1.79-2.92,4.22-5.17,7.28-6.75s6.42-2.37,10.07-2.37c3.16,0,6.26.44,9.28,1.32,3.02.88,5.84,2.13,8.44,3.75v11.39c-1.69-3.87-4.24-6.87-7.65-9.02-3.41-2.14-6.87-3.22-10.39-3.22-4.01,0-7.24,1.3-9.7,3.9s-3.69,5.69-3.69,9.28c0,2.6.74,4.84,2.21,6.7,1.48,1.86,3.29,3.43,5.43,4.69,2.14,1.27,5.15,2.81,9.02,4.64,3.94,1.9,7.17,3.66,9.7,5.27,2.53,1.62,4.64,3.73,6.33,6.33,1.69,2.6,2.53,5.77,2.53,9.49,0,4.22-1,7.87-3.01,10.97-2.01,3.1-4.68,5.47-8.02,7.12-3.34,1.65-6.98,2.48-10.92,2.48-3.66,0-7.17-.51-10.55-1.53Z"/>
        </g>
        <path d="M597.69,256.01"/>
        <g>
          <path d="M186.26,286.13v2.34h-10.62v16.24h12.79v2.34h-15.35v-38.94h15.35v2.34h-12.79v15.69h10.62Z"/>
          <path d="M239.1,307.04v-38.94h2.56v36.6h12.24v2.34h-14.8Z"/>
          <path d="M321.52,286.13v2.34h-10.62v16.24h12.79v2.34h-15.35v-38.94h15.35v2.34h-12.79v15.69h10.62Z"/>
          <path d="M355.39,277.51v.83h-2.45v-1c0-4.12-1.56-7.23-5.78-7.23s-5.78,3.06-5.78,7.18c0,9.46,14.07,9.62,14.07,20.36,0,5.62-2.45,9.73-8.4,9.73s-8.4-4.12-8.4-9.73v-2h2.45v2.17c0,4.17,1.61,7.18,5.9,7.18s5.9-3,5.9-7.18c0-9.34-14.07-9.51-14.07-20.36,0-5.84,2.56-9.62,8.29-9.68,5.9,0,8.29,4.12,8.29,9.73Z"/>
          <path d="M377.42,307.04v-36.6h-7.95v-2.34h18.41v2.34h-7.9v36.6h-2.56Z"/>
          <path d="M442.32,307.04v-36.6h-7.95v-2.34h18.41v2.34h-7.9v36.6h-2.56Z"/>
          <path d="M480.42,286.13v2.34h-10.62v16.24h12.79v2.34h-15.35v-38.94h15.35v2.34h-12.79v15.69h10.62Z"/>
          <path d="M550.44,306.99h-2.56l-8.23-34.43v34.49h-2.28v-38.94h3.67l8.18,34.43,8.12-34.43h3.67v38.94h-2.45v-34.6l-8.12,34.54Z"/>
          <path d="M620.52,268.11c6.01,0,8.62,3.95,8.62,9.68v19.58c0,5.73-2.61,9.68-8.62,9.68h-8.57v-38.94h8.57ZM620.46,304.71c4.34,0,6.12-2.95,6.12-7.23v-19.8c0-4.28-1.84-7.23-6.12-7.23h-5.95v34.27h5.95Z"/>
          <path d="M657.67,286.13v2.34h-10.62v16.24h12.79v2.34h-15.35v-38.94h15.35v2.34h-12.79v15.69h10.62Z"/>
          <path d="M717.17,288.74v18.3h-2.56v-38.94h2.56v18.3h12.13v-18.3h2.61v38.94h-2.61v-18.3h-12.13Z"/>
          <path d="M799.27,277.51v.83h-2.45v-1c0-4.12-1.56-7.23-5.78-7.23s-5.79,3.06-5.79,7.18c0,9.46,14.07,9.62,14.07,20.36,0,5.62-2.45,9.73-8.4,9.73s-8.4-4.12-8.4-9.73v-2h2.45v2.17c0,4.17,1.61,7.18,5.9,7.18s5.9-3,5.9-7.18c0-9.34-14.07-9.51-14.07-20.36,0-5.84,2.56-9.62,8.29-9.68,5.9,0,8.29,4.12,8.29,9.73Z"/>
          <path d="M830.97,277.51v.83h-2.45v-1c0-4.12-1.56-7.23-5.78-7.23s-5.79,3.06-5.79,7.18c0,9.46,14.07,9.62,14.07,20.36,0,5.62-2.45,9.73-8.4,9.73s-8.4-4.12-8.4-9.73v-2h2.45v2.17c0,4.17,1.61,7.18,5.9,7.18s5.9-3,5.9-7.18c0-9.34-14.07-9.51-14.07-20.36,0-5.84,2.56-9.62,8.29-9.68,5.9,0,8.29,4.12,8.29,9.73Z"/>
          <path d="M846.26,307.04v-38.94h2.56v36.6h12.24v2.34h-14.8Z"/>
          <path d="M889.2,286.13v2.34h-10.62v16.24h12.79v2.34h-15.35v-38.94h15.35v2.34h-12.79v15.69h10.62Z"/>
          <path d="M958.77,287.07v2.34h-10.07v17.63h-2.56v-38.94h14.8v2.34h-12.24v16.63h10.07Z"/>
          <path d="M1021.73,286.13v2.34h-10.62v16.24h12.79v2.34h-15.35v-38.94h15.35v2.34h-12.79v15.69h10.62Z"/>
          <path d="M1052.38,286.13v2.34h-10.62v16.24h12.79v2.34h-15.35v-38.94h15.35v2.34h-12.79v15.69h10.62Z"/>
          <path d="M158.16,307.07l-6.39-18.71c3.77-.91,5.53-3.51,5.53-8.04v-3.39c0-5.51-2.39-8.79-8.34-8.79h-8.12v38.94h2.56v-18.36h4.06c1.02-.02,1.79-.06,2.4-.11l6.34,18.46h1.96ZM143.39,287.34v-16.86h5.51c4.23,0,5.84,2.5,5.84,6.68v3.67c0,5.23-2.67,6.51-7.23,6.51h-4.12Z"/>
          <path d="M993.11,307.07l-6.39-18.71c3.77-.91,5.53-3.51,5.53-8.04v-3.39c0-5.51-2.39-8.79-8.34-8.79h-8.12v38.94h2.56v-18.36h4.06c1.02-.02,1.79-.06,2.4-.11l6.34,18.46h1.96ZM978.34,287.34v-16.86h5.51c4.23,0,5.84,2.5,5.84,6.68v3.67c0,5.23-2.67,6.51-7.23,6.51h-4.12Z"/>
          <path d="M213.49,268.11l-8.69,38.94h1.97l1.64-7.27h10.23l1.64,7.27h2.16l-8.96-38.94ZM208.74,297.89l4.74-21.26,4.83,21.26h-9.57Z"/>
          <path d="M409.91,268.11l-8.69,38.94h1.97l1.64-7.27h10.23l1.64,7.27h2.16l-8.96-38.94ZM405.16,297.89l4.74-21.26,4.83,21.26h-9.57Z"/>
          <path d="M585.85,268.02l-8.69,38.94h1.97l1.64-7.27h10.23l1.64,7.27h2.16l-8.96-38.94ZM581.1,297.8l4.74-21.26,4.83,21.26h-9.57Z"/>
          <path d="M757.27,268.11l-8.69,38.94h1.97l1.64-7.27h10.23l1.64,7.27h2.16l-8.96-38.94ZM752.53,297.89l4.74-21.26,4.83,21.26h-9.57Z"/>
        </g>
      </g>
    </g>
  </g>
</svg>